{
	"asset":{
		"generator":"Khronos glTF Blender I/O v4.5.48",
		"version":"2.0"
	},
	"scene":0,
	"scenes":[
		{
			"name":"Scene",
			"nodes":[
				0,
				1,
				2,
				3,
				4,
				5,
				6,
				7,
				8,
				9,
				10,
				11,
				12,
				13,
				14,
				15,
				16,
				17
			]
		}
	],
	"nodes":[
		{
			"mesh":0,
			"name":"Body",
			"rotation":[
				0.5000000596046448,
				-0.5,
				0.4999999403953552,
				0.5
			]
		},
		{
			"mesh":1,
			"name":"Logos",
			"rotation":[
				0.5000000596046448,
				-0.5,
				0.4999999403953552,
				0.5
			]
		},
		{
			"mesh":2,
			"name":"CalfFrontLeft",
			"rotation":[
				0.5000000596046448,
				-0.5,
				0.4999999403953552,
				0.5
			]
		},
		{
			"mesh":3,
			"name":"LegFrontLeft",
			"rotation":[
				0.5000000596046448,
				-0.5,
				0.4999999403953552,
				0.5
			]
		},
		{
			"mesh":4,
			"name":"LeftFrontMotor",
			"rotation":[
				0.5000000596046448,
				-0.5,
				0.4999999403953552,
				0.5
			]
		},
		{
			"mesh":5,
			"name":"CalfFrontRight",
			"rotation":[
				0.5000000596046448,
				-0.5,
				0.4999999403953552,
				0.5
			]
		},
		{
			"mesh":6,
			"name":"LegRightFront",
			"rotation":[
				0.5000000596046448,
				-0.5,
				0.4999999403953552,
				0.5
			]
		},
		{
			"mesh":7,
			"name":"RightFrontMotor",
			"rotation":[
				0.5000000596046448,
				-0.5,
				0.4999999403953552,
				0.5
			]
		},
		{
			"mesh":8,
			"name":"CalfBackLeft",
			"rotation":[
				0.5000000596046448,
				-0.5,
				0.4999999403953552,
				0.5
			]
		},
		{
			"mesh":9,
			"name":"ContactPoint",
			"rotation":[
				0.5000000596046448,
				-0.5,
				0.4999999403953552,
				0.5
			]
		},
		{
			"mesh":10,
			"name":"LeftMotor",
			"rotation":[
				-0.4992866814136505,
				0.5007586479187012,
				0.49924027919769287,
				0.5007122755050659
			]
		},
		{
			"mesh":11,
			"name":"LegBackLeft",
			"rotation":[
				0.5000000596046448,
				-0.5,
				0.4999999403953552,
				0.5
			]
		},
		{
			"mesh":12,
			"name":"HeadSensor",
			"rotation":[
				0.5000000596046448,
				-0.5,
				0.4999999403953552,
				0.5
			]
		},
		{
			"mesh":13,
			"name":"CalfBackRight",
			"rotation":[
				0.5000000596046448,
				-0.5,
				0.4999999403953552,
				0.5
			]
		},
		{
			"mesh":14,
			"name":"RightMotor",
			"rotation":[
				0.4999538064002991,
				0.49999988079071045,
				-0.5,
				0.5000463128089905
			]
		},
		{
			"mesh":15,
			"name":"LegBackRight",
			"rotation":[
				0.5000000596046448,
				-0.5,
				0.4999999403953552,
				0.5
			]
		},
		{
			"mesh":16,
			"name":"BateryPark",
			"rotation":[
				0.4868810474872589,
				0.5118748545646667,
				-0.489613801240921,
				0.5110864639282227
			],
			"scale":[
				0.48467522859573364,
				0.6999976634979248,
				0.6999994516372681
			]
		},
		{
			"mesh":17,
			"name":"TrackingModule",
			"rotation":[
				0.0020142460707575083,
				0.9999772906303406,
				0.006190198007971048,
				0.0017372549045830965
			],
			"scale":[
				3.043818950653076,
				2.257067918777466,
				2.6778414249420166
			]
		}
	],
	"materials":[
		{
			"doubleSided":true,
			"name":"material_4C4C4C",
			"pbrMetallicRoughness":{
				"baseColorFactor":[
					0.6842046976089478,
					0.7078167796134949,
					0.7238528728485107,
					1
				],
				"metallicFactor":0
			}
		},
		{
			"doubleSided":true,
			"name":"material_100100100",
			"pbrMetallicRoughness":{
				"metallicFactor":0
			}
		},
		{
			"doubleSided":true,
			"name":"material_737373",
			"pbrMetallicRoughness":{
				"baseColorFactor":[
					0.5647076964378357,
					0.5840790867805481,
					0.5972022414207458,
					1
				],
				"metallicFactor":0.4617156982421875,
				"roughnessFactor":0.6689544320106506
			}
		},
		{
			"doubleSided":true,
			"name":"material_CCC",
			"pbrMetallicRoughness":{
				"baseColorFactor":[
					0.01773197017610073,
					0.01692909561097622,
					0.01692909561097622,
					1
				],
				"metallicFactor":0,
				"roughnessFactor":0.8944789171218872
			}
		},
		{
			"alphaMode":"MASK",
			"doubleSided":true,
			"name":"Invisible",
			"pbrMetallicRoughness":{
				"baseColorFactor":[
					0.7990972995758057,
					0.7991039752960205,
					0,
					0
				],
				"metallicFactor":0,
				"roughnessFactor":0.5
			}
		}
	],
	"meshes":[
		{
			"name":"Object_0",
			"primitives":[
				{
					"attributes":{
						"POSITION":0,
						"NORMAL":1,
						"TEXCOORD_0":2
					},
					"indices":3,
					"material":0
				}
			]
		},
		{
			"name":"Object_11",
			"primitives":[
				{
					"attributes":{
						"POSITION":4,
						"NORMAL":5
					},
					"indices":6,
					"material":1
				}
			]
		},
		{
			"name":"Object_12",
			"primitives":[
				{
					"attributes":{
						"POSITION":7,
						"NORMAL":8
					},
					"indices":9,
					"material":2
				}
			]
		},
		{
			"name":"Object_16",
			"primitives":[
				{
					"attributes":{
						"POSITION":10,
						"NORMAL":11
					},
					"indices":12,
					"material":2
				}
			]
		},
		{
			"name":"Object_17",
			"primitives":[
				{
					"attributes":{
						"POSITION":13,
						"NORMAL":14
					},
					"indices":15,
					"material":0
				},
				{
					"attributes":{
						"POSITION":16,
						"NORMAL":17
					},
					"indices":18,
					"material":2
				}
			]
		},
		{
			"name":"Object_18",
			"primitives":[
				{
					"attributes":{
						"POSITION":19,
						"NORMAL":20
					},
					"indices":21,
					"material":2
				}
			]
		},
		{
			"name":"Object_22",
			"primitives":[
				{
					"attributes":{
						"POSITION":22,
						"NORMAL":23
					},
					"indices":24,
					"material":2
				}
			]
		},
		{
			"name":"Object_23",
			"primitives":[
				{
					"attributes":{
						"POSITION":25,
						"NORMAL":26
					},
					"indices":27,
					"material":0
				},
				{
					"attributes":{
						"POSITION":28,
						"NORMAL":29
					},
					"indices":30,
					"material":2
				}
			]
		},
		{
			"name":"Object_24",
			"primitives":[
				{
					"attributes":{
						"POSITION":31,
						"NORMAL":32
					},
					"indices":33,
					"material":2
				}
			]
		},
		{
			"name":"Object_25",
			"primitives":[
				{
					"attributes":{
						"POSITION":34,
						"NORMAL":35
					},
					"indices":36,
					"material":3
				}
			]
		},
		{
			"name":"Object_26",
			"primitives":[
				{
					"attributes":{
						"POSITION":37,
						"NORMAL":38
					},
					"indices":39,
					"material":2
				},
				{
					"attributes":{
						"POSITION":40,
						"NORMAL":41
					},
					"indices":42,
					"material":0
				}
			]
		},
		{
			"name":"Object_28",
			"primitives":[
				{
					"attributes":{
						"POSITION":43,
						"NORMAL":44
					},
					"indices":45,
					"material":2
				}
			]
		},
		{
			"name":"Object_3",
			"primitives":[
				{
					"attributes":{
						"POSITION":46,
						"NORMAL":47
					},
					"indices":48,
					"material":3
				}
			]
		},
		{
			"name":"Object_30",
			"primitives":[
				{
					"attributes":{
						"POSITION":49,
						"NORMAL":50
					},
					"indices":51,
					"material":2
				}
			]
		},
		{
			"name":"Object_32",
			"primitives":[
				{
					"attributes":{
						"POSITION":52,
						"NORMAL":53
					},
					"indices":54,
					"material":2
				},
				{
					"attributes":{
						"POSITION":55,
						"NORMAL":56
					},
					"indices":57,
					"material":0
				}
			]
		},
		{
			"name":"Object_34",
			"primitives":[
				{
					"attributes":{
						"POSITION":58,
						"NORMAL":59
					},
					"indices":60,
					"material":2
				}
			]
		},
		{
			"name":"Cube.001",
			"primitives":[
				{
					"attributes":{
						"POSITION":61,
						"NORMAL":62,
						"TEXCOORD_0":63
					},
					"indices":64
				}
			]
		},
		{
			"name":"Cube.002",
			"primitives":[
				{
					"attributes":{
						"POSITION":65,
						"NORMAL":66,
						"TEXCOORD_0":67
					},
					"indices":64,
					"material":4
				}
			]
		}
	],
	"accessors":[
		{
			"bufferView":0,
			"componentType":5126,
			"count":177105,
			"max":[
				0.33195793628692627,
				0.09722297638654709,
				-0.35384100675582886
			],
			"min":[
				-0.1279979646205902,
				-0.09677696973085403,
				-0.5388339757919312
			],
			"type":"VEC3"
		},
		{
			"bufferView":1,
			"componentType":5126,
			"count":177105,
			"type":"VEC3"
		},
		{
			"bufferView":2,
			"componentType":5126,
			"count":177105,
			"type":"VEC2"
		},
		{
			"bufferView":3,
			"componentType":5125,
			"count":178269,
			"type":"SCALAR"
		},
		{
			"bufferView":4,
			"componentType":5126,
			"count":485447,
			"max":[
				0.3272639513015747,
				0.09672683477401733,
				-0.46649858355522156
			],
			"min":[
				-0.09323566406965256,
				-0.09706424176692963,
				-0.5045362710952759
			],
			"type":"VEC3"
		},
		{
			"bufferView":5,
			"componentType":5126,
			"count":485447,
			"type":"VEC3"
		},
		{
			"bufferView":6,
			"componentType":5125,
			"count":493356,
			"type":"SCALAR"
		},
		{
			"bufferView":7,
			"componentType":5126,
			"count":5576,
			"max":[
				0.225835919380188,
				-0.12335604429244995,
				-0.016810476779937744
			],
			"min":[
				0.17359602451324463,
				-0.16070197522640228,
				-0.2686433494091034
			],
			"type":"VEC3"
		},
		{
			"bufferView":8,
			"componentType":5126,
			"count":5576,
			"type":"VEC3"
		},
		{
			"bufferView":9,
			"componentType":5123,
			"count":19461,
			"type":"SCALAR"
		},
		{
			"bufferView":10,
			"componentType":5126,
			"count":18208,
			"max":[
				0.23988692462444305,
				-0.0936039388179779,
				-0.2232004553079605
			],
			"min":[
				0.14738702774047852,
				-0.15807096660137177,
				-0.4994264543056488
			],
			"type":"VEC3"
		},
		{
			"bufferView":11,
			"componentType":5126,
			"count":18208,
			"type":"VEC3"
		},
		{
			"bufferView":12,
			"componentType":5123,
			"count":55080,
			"type":"SCALAR"
		},
		{
			"bufferView":13,
			"componentType":5126,
			"count":53012,
			"max":[
				0.24186395108699799,
				-0.00841599702835083,
				-0.4011624753475189
			],
			"min":[
				0.1320839822292328,
				-0.1586209386587143,
				-0.5011314153671265
			],
			"type":"VEC3"
		},
		{
			"bufferView":14,
			"componentType":5126,
			"count":53012,
			"type":"VEC3"
		},
		{
			"bufferView":15,
			"componentType":5123,
			"count":91455,
			"type":"SCALAR"
		},
		{
			"bufferView":16,
			"componentType":5126,
			"count":53463,
			"max":[
				0.24183382093906403,
				-0.01680898666381836,
				-0.40415748953819275
			],
			"min":[
				0.12378397583961487,
				-0.07480888813734055,
				-0.49665746092796326
			],
			"type":"VEC3"
		},
		{
			"bufferView":17,
			"componentType":5126,
			"count":53463,
			"type":"VEC3"
		},
		{
			"bufferView":18,
			"componentType":5123,
			"count":54030,
			"type":"SCALAR"
		},
		{
			"bufferView":19,
			"componentType":5126,
			"count":5578,
			"max":[
				0.2258358895778656,
				0.16240203380584717,
				-0.016810491681098938
			],
			"min":[
				0.17359599471092224,
				0.12505610287189484,
				-0.2686433792114258
			],
			"type":"VEC3"
		},
		{
			"bufferView":20,
			"componentType":5126,
			"count":5578,
			"type":"VEC3"
		},
		{
			"bufferView":21,
			"componentType":5123,
			"count":19461,
			"type":"SCALAR"
		},
		{
			"bufferView":22,
			"componentType":5126,
			"count":18193,
			"max":[
				0.23988689482212067,
				0.15807099640369415,
				-0.2232004553079605
			],
			"min":[
				0.14738699793815613,
				0.09360404312610626,
				-0.4994264543056488
			],
			"type":"VEC3"
		},
		{
			"bufferView":23,
			"componentType":5126,
			"count":18193,
			"type":"VEC3"
		},
		{
			"bufferView":24,
			"componentType":5123,
			"count":55065,
			"type":"SCALAR"
		},
		{
			"bufferView":25,
			"componentType":5126,
			"count":53058,
			"max":[
				0.2418639212846756,
				0.15862102806568146,
				-0.40145453810691833
			],
			"min":[
				0.1320839524269104,
				0.008415862917900085,
				-0.5011314153671265
			],
			"type":"VEC3"
		},
		{
			"bufferView":26,
			"componentType":5126,
			"count":53058,
			"type":"VEC3"
		},
		{
			"bufferView":27,
			"componentType":5123,
			"count":91455,
			"type":"SCALAR"
		},
		{
			"bufferView":28,
			"componentType":5126,
			"count":53465,
			"max":[
				0.24183383584022522,
				0.07480894774198532,
				-0.40445005893707275
			],
			"min":[
				0.12378396838903427,
				0.01680903136730194,
				-0.49695250391960144
			],
			"type":"VEC3"
		},
		{
			"bufferView":29,
			"componentType":5126,
			"count":53465,
			"type":"VEC3"
		},
		{
			"bufferView":30,
			"componentType":5123,
			"count":54030,
			"type":"SCALAR"
		},
		{
			"bufferView":31,
			"componentType":5126,
			"count":5586,
			"max":[
				-0.16096407175064087,
				-0.12335611879825592,
				-0.016810372471809387
			],
			"min":[
				-0.21320395171642303,
				-0.16070204973220825,
				-0.26864326000213623
			],
			"type":"VEC3"
		},
		{
			"bufferView":32,
			"componentType":5126,
			"count":5586,
			"type":"VEC3"
		},
		{
			"bufferView":33,
			"componentType":5123,
			"count":19461,
			"type":"SCALAR"
		},
		{
			"bufferView":34,
			"componentType":5126,
			"count":52848,
			"max":[
				0.2126779705286026,
				0.1632760614156723,
				-0.0016394108533859253
			],
			"min":[
				-0.21942995488643646,
				-0.16183097660541534,
				-0.04043048992753029
			],
			"type":"VEC3"
		},
		{
			"bufferView":35,
			"componentType":5126,
			"count":52848,
			"type":"VEC3"
		},
		{
			"bufferView":36,
			"componentType":5123,
			"count":52848,
			"type":"SCALAR"
		},
		{
			"bufferView":37,
			"componentType":5126,
			"count":53457,
			"max":[
				0.24179203808307648,
				-0.015482380986213684,
				0.4971042275428772
			],
			"min":[
				0.12374219298362732,
				-0.07348228245973587,
				0.4046042561531067
			],
			"type":"VEC3"
		},
		{
			"bufferView":38,
			"componentType":5126,
			"count":53457,
			"type":"VEC3"
		},
		{
			"bufferView":39,
			"componentType":5123,
			"count":54030,
			"type":"SCALAR"
		},
		{
			"bufferView":40,
			"componentType":5126,
			"count":53043,
			"max":[
				0.2418203055858612,
				-0.007088914513587952,
				0.5015097260475159
			],
			"min":[
				0.13199946284294128,
				-0.15728993713855743,
				0.40159469842910767
			],
			"type":"VEC3"
		},
		{
			"bufferView":41,
			"componentType":5126,
			"count":53043,
			"type":"VEC3"
		},
		{
			"bufferView":42,
			"componentType":5123,
			"count":91455,
			"type":"SCALAR"
		},
		{
			"bufferView":43,
			"componentType":5126,
			"count":18173,
			"max":[
				-0.1469130665063858,
				-0.09360402822494507,
				-0.22320039570331573
			],
			"min":[
				-0.23941296339035034,
				-0.15807105600833893,
				-0.49942639470100403
			],
			"type":"VEC3"
		},
		{
			"bufferView":44,
			"componentType":5126,
			"count":18173,
			"type":"VEC3"
		},
		{
			"bufferView":45,
			"componentType":5123,
			"count":55080,
			"type":"SCALAR"
		},
		{
			"bufferView":46,
			"componentType":5126,
			"count":58038,
			"max":[
				0.33020395040512085,
				0.04217497631907463,
				-0.3537154197692871
			],
			"min":[
				0.24780094623565674,
				-0.04172898456454277,
				-0.506510317325592
			],
			"type":"VEC3"
		},
		{
			"bufferView":47,
			"componentType":5126,
			"count":58038,
			"type":"VEC3"
		},
		{
			"bufferView":48,
			"componentType":5123,
			"count":58881,
			"type":"SCALAR"
		},
		{
			"bufferView":49,
			"componentType":5126,
			"count":5575,
			"max":[
				-0.16096410155296326,
				0.1624019593000412,
				-0.01681041717529297
			],
			"min":[
				-0.21320398151874542,
				0.12505602836608887,
				-0.2686432898044586
			],
			"type":"VEC3"
		},
		{
			"bufferView":50,
			"componentType":5126,
			"count":5575,
			"type":"VEC3"
		},
		{
			"bufferView":51,
			"componentType":5123,
			"count":19461,
			"type":"SCALAR"
		},
		{
			"bufferView":52,
			"componentType":5126,
			"count":53459,
			"max":[
				0.24179214239120483,
				-0.016767427325248718,
				-0.4041796624660492
			],
			"min":[
				0.12374229729175568,
				-0.0747673287987709,
				-0.4966796338558197
			],
			"type":"VEC3"
		},
		{
			"bufferView":53,
			"componentType":5126,
			"count":53459,
			"type":"VEC3"
		},
		{
			"bufferView":54,
			"componentType":5123,
			"count":54030,
			"type":"SCALAR"
		},
		{
			"bufferView":55,
			"componentType":5126,
			"count":53053,
			"max":[
				0.24181991815567017,
				-0.008374202996492386,
				-0.40117377042770386
			],
			"min":[
				0.13199910521507263,
				-0.1585792601108551,
				-0.5011605620384216
			],
			"type":"VEC3"
		},
		{
			"bufferView":56,
			"componentType":5126,
			"count":53053,
			"type":"VEC3"
		},
		{
			"bufferView":57,
			"componentType":5123,
			"count":91455,
			"type":"SCALAR"
		},
		{
			"bufferView":58,
			"componentType":5126,
			"count":18173,
			"max":[
				-0.1469130963087082,
				0.158070906996727,
				-0.22320039570331573
			],
			"min":[
				-0.23941299319267273,
				0.0936039537191391,
				-0.49942639470100403
			],
			"type":"VEC3"
		},
		{
			"bufferView":59,
			"componentType":5126,
			"count":18173,
			"type":"VEC3"
		},
		{
			"bufferView":60,
			"componentType":5123,
			"count":55065,
			"type":"SCALAR"
		},
		{
			"bufferView":61,
			"componentType":5126,
			"count":24,
			"max":[
				0.11953126639127731,
				0.17099438607692719,
				-0.6135949492454529
			],
			"min":[
				-0.09897349029779434,
				0.15888972580432892,
				-0.6372634768486023
			],
			"type":"VEC3"
		},
		{
			"bufferView":62,
			"componentType":5126,
			"count":24,
			"type":"VEC3"
		},
		{
			"bufferView":63,
			"componentType":5126,
			"count":24,
			"type":"VEC2"
		},
		{
			"bufferView":64,
			"componentType":5123,
			"count":36,
			"type":"SCALAR"
		},
		{
			"bufferView":65,
			"componentType":5126,
			"count":24,
			"max":[
				0.0069984677247703075,
				0.24065323173999786,
				-0.07093788683414459
			],
			"min":[
				-0.005849584471434355,
				0.23691748082637787,
				-0.08915159106254578
			],
			"type":"VEC3"
		},
		{
			"bufferView":66,
			"componentType":5126,
			"count":24,
			"type":"VEC3"
		},
		{
			"bufferView":67,
			"componentType":5126,
			"count":24,
			"type":"VEC2"
		}
	],
	"bufferViews":[
		{
			"buffer":0,
			"byteLength":2125260,
			"byteOffset":0,
			"target":34962
		},
		{
			"buffer":0,
			"byteLength":2125260,
			"byteOffset":2125260,
			"target":34962
		},
		{
			"buffer":0,
			"byteLength":1416840,
			"byteOffset":4250520,
			"target":34962
		},
		{
			"buffer":0,
			"byteLength":713076,
			"byteOffset":5667360,
			"target":34963
		},
		{
			"buffer":0,
			"byteLength":5825364,
			"byteOffset":6380436,
			"target":34962
		},
		{
			"buffer":0,
			"byteLength":5825364,
			"byteOffset":12205800,
			"target":34962
		},
		{
			"buffer":0,
			"byteLength":1973424,
			"byteOffset":18031164,
			"target":34963
		},
		{
			"buffer":0,
			"byteLength":66912,
			"byteOffset":20004588,
			"target":34962
		},
		{
			"buffer":0,
			"byteLength":66912,
			"byteOffset":20071500,
			"target":34962
		},
		{
			"buffer":0,
			"byteLength":38922,
			"byteOffset":20138412,
			"target":34963
		},
		{
			"buffer":0,
			"byteLength":218496,
			"byteOffset":20177336,
			"target":34962
		},
		{
			"buffer":0,
			"byteLength":218496,
			"byteOffset":20395832,
			"target":34962
		},
		{
			"buffer":0,
			"byteLength":110160,
			"byteOffset":20614328,
			"target":34963
		},
		{
			"buffer":0,
			"byteLength":636144,
			"byteOffset":20724488,
			"target":34962
		},
		{
			"buffer":0,
			"byteLength":636144,
			"byteOffset":21360632,
			"target":34962
		},
		{
			"buffer":0,
			"byteLength":182910,
			"byteOffset":21996776,
			"target":34963
		},
		{
			"buffer":0,
			"byteLength":641556,
			"byteOffset":22179688,
			"target":34962
		},
		{
			"buffer":0,
			"byteLength":641556,
			"byteOffset":22821244,
			"target":34962
		},
		{
			"buffer":0,
			"byteLength":108060,
			"byteOffset":23462800,
			"target":34963
		},
		{
			"buffer":0,
			"byteLength":66936,
			"byteOffset":23570860,
			"target":34962
		},
		{
			"buffer":0,
			"byteLength":66936,
			"byteOffset":23637796,
			"target":34962
		},
		{
			"buffer":0,
			"byteLength":38922,
			"byteOffset":23704732,
			"target":34963
		},
		{
			"buffer":0,
			"byteLength":218316,
			"byteOffset":23743656,
			"target":34962
		},
		{
			"buffer":0,
			"byteLength":218316,
			"byteOffset":23961972,
			"target":34962
		},
		{
			"buffer":0,
			"byteLength":110130,
			"byteOffset":24180288,
			"target":34963
		},
		{
			"buffer":0,
			"byteLength":636696,
			"byteOffset":24290420,
			"target":34962
		},
		{
			"buffer":0,
			"byteLength":636696,
			"byteOffset":24927116,
			"target":34962
		},
		{
			"buffer":0,
			"byteLength":182910,
			"byteOffset":25563812,
			"target":34963
		},
		{
			"buffer":0,
			"byteLength":641580,
			"byteOffset":25746724,
			"target":34962
		},
		{
			"buffer":0,
			"byteLength":641580,
			"byteOffset":26388304,
			"target":34962
		},
		{
			"buffer":0,
			"byteLength":108060,
			"byteOffset":27029884,
			"target":34963
		},
		{
			"buffer":0,
			"byteLength":67032,
			"byteOffset":27137944,
			"target":34962
		},
		{
			"buffer":0,
			"byteLength":67032,
			"byteOffset":27204976,
			"target":34962
		},
		{
			"buffer":0,
			"byteLength":38922,
			"byteOffset":27272008,
			"target":34963
		},
		{
			"buffer":0,
			"byteLength":634176,
			"byteOffset":27310932,
			"target":34962
		},
		{
			"buffer":0,
			"byteLength":634176,
			"byteOffset":27945108,
			"target":34962
		},
		{
			"buffer":0,
			"byteLength":105696,
			"byteOffset":28579284,
			"target":34963
		},
		{
			"buffer":0,
			"byteLength":641484,
			"byteOffset":28684980,
			"target":34962
		},
		{
			"buffer":0,
			"byteLength":641484,
			"byteOffset":29326464,
			"target":34962
		},
		{
			"buffer":0,
			"byteLength":108060,
			"byteOffset":29967948,
			"target":34963
		},
		{
			"buffer":0,
			"byteLength":636516,
			"byteOffset":30076008,
			"target":34962
		},
		{
			"buffer":0,
			"byteLength":636516,
			"byteOffset":30712524,
			"target":34962
		},
		{
			"buffer":0,
			"byteLength":182910,
			"byteOffset":31349040,
			"target":34963
		},
		{
			"buffer":0,
			"byteLength":218076,
			"byteOffset":31531952,
			"target":34962
		},
		{
			"buffer":0,
			"byteLength":218076,
			"byteOffset":31750028,
			"target":34962
		},
		{
			"buffer":0,
			"byteLength":110160,
			"byteOffset":31968104,
			"target":34963
		},
		{
			"buffer":0,
			"byteLength":696456,
			"byteOffset":32078264,
			"target":34962
		},
		{
			"buffer":0,
			"byteLength":696456,
			"byteOffset":32774720,
			"target":34962
		},
		{
			"buffer":0,
			"byteLength":117762,
			"byteOffset":33471176,
			"target":34963
		},
		{
			"buffer":0,
			"byteLength":66900,
			"byteOffset":33588940,
			"target":34962
		},
		{
			"buffer":0,
			"byteLength":66900,
			"byteOffset":33655840,
			"target":34962
		},
		{
			"buffer":0,
			"byteLength":38922,
			"byteOffset":33722740,
			"target":34963
		},
		{
			"buffer":0,
			"byteLength":641508,
			"byteOffset":33761664,
			"target":34962
		},
		{
			"buffer":0,
			"byteLength":641508,
			"byteOffset":34403172,
			"target":34962
		},
		{
			"buffer":0,
			"byteLength":108060,
			"byteOffset":35044680,
			"target":34963
		},
		{
			"buffer":0,
			"byteLength":636636,
			"byteOffset":35152740,
			"target":34962
		},
		{
			"buffer":0,
			"byteLength":636636,
			"byteOffset":35789376,
			"target":34962
		},
		{
			"buffer":0,
			"byteLength":182910,
			"byteOffset":36426012,
			"target":34963
		},
		{
			"buffer":0,
			"byteLength":218076,
			"byteOffset":36608924,
			"target":34962
		},
		{
			"buffer":0,
			"byteLength":218076,
			"byteOffset":36827000,
			"target":34962
		},
		{
			"buffer":0,
			"byteLength":110130,
			"byteOffset":37045076,
			"target":34963
		},
		{
			"buffer":0,
			"byteLength":288,
			"byteOffset":37155208,
			"target":34962
		},
		{
			"buffer":0,
			"byteLength":288,
			"byteOffset":37155496,
			"target":34962
		},
		{
			"buffer":0,
			"byteLength":192,
			"byteOffset":37155784,
			"target":34962
		},
		{
			"buffer":0,
			"byteLength":72,
			"byteOffset":37155976,
			"target":34963
		},
		{
			"buffer":0,
			"byteLength":288,
			"byteOffset":37156048,
			"target":34962
		},
		{
			"buffer":0,
			"byteLength":288,
			"byteOffset":37156336,
			"target":34962
		},
		{
			"buffer":0,
			"byteLength":192,
			"byteOffset":37156624,
			"target":34962
		}
	],
	"buffers":[
		{
			"byteLength":37156816,
			"uri":"Go2.bin"
		}
	]
}
