{
	"asset":{
		"generator":"Khronos glTF Blender I/O v4.5.48",
		"version":"2.0"
	},
	"scene":0,
	"scenes":[
		{
			"name":"Scene",
			"nodes":[
				0,
				1,
				2,
				3,
				4,
				5,
				6,
				7,
				8,
				9,
				10
			]
		}
	],
	"nodes":[
		{
			"mesh":0,
			"name":"component_95DB95_01"
		},
		{
			"mesh":1,
			"name":"component_95DB95_02"
		},
		{
			"mesh":2,
			"name":"component_95DB95_03"
		},
		{
			"mesh":3,
			"name":"component_A6A6A6_01",
			"translation":[
				0,
				0.30242079496383667,
				0
			]
		},
		{
			"mesh":4,
			"name":"component_B5B5B5_01",
			"translation":[
				0,
				-0.1873941272497177,
				0
			]
		},
		{
			"mesh":5,
			"name":"component_CF4747_01"
		},
		{
			"mesh":6,
			"name":"component_E8B46F_01"
		},
		{
			"mesh":7,
			"name":"component_FFFFFF_01"
		},
		{
			"mesh":8,
			"name":"component_FFFFFF_02"
		},
		{
			"mesh":9,
			"name":"Cone",
			"rotation":[
				-0.7071068286895752,
				0,
				0,
				0.7071068286895752
			],
			"translation":[
				-28.114091873168945,
				2.6214075088500977,
				-59.5850944519043
			]
		},
		{
			"mesh":10,
			"name":"Text",
			"scale":[
				0.47507810592651367,
				1,
				0.47507810592651367
			],
			"translation":[
				-32.69486999511719,
				3.066494941711426,
				-43.6817741394043
			]
		}
	],
	"materials":[
		{
			"doubleSided":true,
			"name":"Material.001",
			"pbrMetallicRoughness":{
				"baseColorFactor":[
					0.3005412220954895,
					0.7083767056465149,
					0.30054399371147156,
					1
				],
				"metallicFactor":0,
				"roughnessFactor":0.5
			}
		},
		{
			"doubleSided":true,
			"name":"Material.002",
			"pbrMetallicRoughness":{
				"baseColorFactor":[
					0.1369641125202179,
					0.7085757255554199,
					0.13834963738918304,
					1
				],
				"metallicFactor":0,
				"roughnessFactor":0.5
			}
		},
		{
			"doubleSided":true,
			"name":"Material.006",
			"pbrMetallicRoughness":{
				"baseColorFactor":[
					0.22592905163764954,
					0.22593525052070618,
					0.22593525052070618,
					1
				],
				"metallicFactor":0,
				"roughnessFactor":0.5
			}
		},
		{
			"doubleSided":true,
			"name":"Material.005",
			"pbrMetallicRoughness":{
				"baseColorFactor":[
					0.4620737135410309,
					0.4620773494243622,
					0.4620770812034607,
					1
				],
				"metallicFactor":0,
				"roughnessFactor":0.5
			}
		},
		{
			"doubleSided":true,
			"name":"Material.004",
			"pbrMetallicRoughness":{
				"baseColorFactor":[
					0.6239571571350098,
					0.06301004439592361,
					0.06301004439592361,
					1
				],
				"metallicFactor":0,
				"roughnessFactor":0.5
			}
		},
		{
			"doubleSided":true,
			"name":"Material.007",
			"pbrMetallicRoughness":{
				"baseColorFactor":[
					0.8001892566680908,
					0.3750300705432892,
					0.09095678478479385,
					1
				],
				"metallicFactor":0,
				"roughnessFactor":0.5
			}
		},
		{
			"doubleSided":true,
			"name":"Material.003",
			"pbrMetallicRoughness":{
				"metallicFactor":0,
				"roughnessFactor":0.5
			}
		}
	],
	"meshes":[
		{
			"name":"component_95DB95_01",
			"primitives":[
				{
					"attributes":{
						"POSITION":0,
						"NORMAL":1
					},
					"indices":2,
					"material":0
				}
			]
		},
		{
			"name":"component_95DB95_02",
			"primitives":[
				{
					"attributes":{
						"POSITION":3,
						"NORMAL":4
					},
					"indices":5,
					"material":0
				}
			]
		},
		{
			"name":"component_95DB95_03",
			"primitives":[
				{
					"attributes":{
						"POSITION":6,
						"NORMAL":7
					},
					"indices":8,
					"material":1
				}
			]
		},
		{
			"name":"component_A6A6A6_01",
			"primitives":[
				{
					"attributes":{
						"POSITION":9,
						"NORMAL":10
					},
					"indices":11,
					"material":2
				}
			]
		},
		{
			"name":"component_B5B5B5_01",
			"primitives":[
				{
					"attributes":{
						"POSITION":12,
						"NORMAL":13
					},
					"indices":14,
					"material":3
				}
			]
		},
		{
			"name":"component_CF4747_01",
			"primitives":[
				{
					"attributes":{
						"POSITION":15,
						"NORMAL":16
					},
					"indices":17,
					"material":4
				}
			]
		},
		{
			"name":"component_E8B46F_01",
			"primitives":[
				{
					"attributes":{
						"POSITION":18,
						"NORMAL":19
					},
					"indices":20,
					"material":5
				}
			]
		},
		{
			"name":"component_FFFFFF_01",
			"primitives":[
				{
					"attributes":{
						"POSITION":21,
						"NORMAL":22
					},
					"indices":23,
					"material":6
				}
			]
		},
		{
			"name":"component_FFFFFF_02",
			"primitives":[
				{
					"attributes":{
						"POSITION":24,
						"NORMAL":25
					},
					"indices":26,
					"material":6
				}
			]
		},
		{
			"name":"Cone",
			"primitives":[
				{
					"attributes":{
						"POSITION":27,
						"NORMAL":28,
						"TEXCOORD_0":29
					},
					"indices":30,
					"material":4
				}
			]
		},
		{
			"name":"N",
			"primitives":[
				{
					"attributes":{
						"POSITION":31,
						"NORMAL":32,
						"TEXCOORD_0":33
					},
					"indices":34,
					"material":4
				}
			]
		}
	],
	"accessors":[
		{
			"bufferView":0,
			"componentType":5126,
			"count":32003,
			"max":[
				74.99989318847656,
				2.858638048171997,
				74.21898651123047
			],
			"min":[
				-66.2591552734375,
				2.086212635040283,
				-74.8927993774414
			],
			"type":"VEC3"
		},
		{
			"bufferView":1,
			"componentType":5126,
			"count":32003,
			"type":"VEC3"
		},
		{
			"bufferView":2,
			"componentType":5123,
			"count":54024,
			"type":"SCALAR"
		},
		{
			"bufferView":3,
			"componentType":5126,
			"count":7692,
			"max":[
				-15.346789360046387,
				2.8967998027801514,
				42.37162780761719
			],
			"min":[
				-74.99989318847656,
				2.1243743896484375,
				-36.80945587158203
			],
			"type":"VEC3"
		},
		{
			"bufferView":4,
			"componentType":5126,
			"count":7692,
			"type":"VEC3"
		},
		{
			"bufferView":5,
			"componentType":5123,
			"count":13224,
			"type":"SCALAR"
		},
		{
			"bufferView":6,
			"componentType":5126,
			"count":3926,
			"max":[
				2.1195759773254395,
				2.8967998027801514,
				-13.700423240661621
			],
			"min":[
				-73.22118377685547,
				2.048051118850708,
				-73.26058197021484
			],
			"type":"VEC3"
		},
		{
			"bufferView":7,
			"componentType":5126,
			"count":3926,
			"type":"VEC3"
		},
		{
			"bufferView":8,
			"componentType":5123,
			"count":5880,
			"type":"SCALAR"
		},
		{
			"bufferView":9,
			"componentType":5126,
			"count":51360,
			"max":[
				33.789093017578125,
				3.612560272216797,
				49.245121002197266
			],
			"min":[
				-40.65938186645508,
				2.2388594150543213,
				-72.5422592163086
			],
			"type":"VEC3"
		},
		{
			"bufferView":10,
			"componentType":5126,
			"count":51360,
			"type":"VEC3"
		},
		{
			"bufferView":11,
			"componentType":5123,
			"count":106704,
			"type":"SCALAR"
		},
		{
			"bufferView":12,
			"componentType":5126,
			"count":131054,
			"max":[
				55.74581527709961,
				3.1659207344055176,
				58.829593658447266
			],
			"min":[
				-70.86786651611328,
				2.1243743896484375,
				-74.8262939453125
			],
			"type":"VEC3"
		},
		{
			"bufferView":13,
			"componentType":5126,
			"count":131054,
			"type":"VEC3"
		},
		{
			"bufferView":14,
			"componentType":5125,
			"count":191688,
			"type":"SCALAR"
		},
		{
			"bufferView":15,
			"componentType":5126,
			"count":4274,
			"max":[
				16.53724479675293,
				2.717829704284668,
				-21.526168823242188
			],
			"min":[
				-8.957132339477539,
				2.2388594150543213,
				-73.63108825683594
			],
			"type":"VEC3"
		},
		{
			"bufferView":16,
			"componentType":5126,
			"count":4274,
			"type":"VEC3"
		},
		{
			"bufferView":17,
			"componentType":5123,
			"count":6312,
			"type":"SCALAR"
		},
		{
			"bufferView":18,
			"componentType":5126,
			"count":17884,
			"max":[
				19.71135711669922,
				3.0222866535186768,
				21.15785026550293
			],
			"min":[
				-21.305978775024414,
				2.2388594150543213,
				-41.62833786010742
			],
			"type":"VEC3"
		},
		{
			"bufferView":19,
			"componentType":5126,
			"count":17884,
			"type":"VEC3"
		},
		{
			"bufferView":20,
			"componentType":5123,
			"count":25932,
			"type":"SCALAR"
		},
		{
			"bufferView":21,
			"componentType":5126,
			"count":14242,
			"max":[
				74.99989318847656,
				3.040255069732666,
				74.99989318847656
			],
			"min":[
				-74.99989318847656,
				4.768373429442363e-08,
				-74.99989318847656
			],
			"type":"VEC3"
		},
		{
			"bufferView":22,
			"componentType":5126,
			"count":14242,
			"type":"VEC3"
		},
		{
			"bufferView":23,
			"componentType":5123,
			"count":40752,
			"type":"SCALAR"
		},
		{
			"bufferView":24,
			"componentType":5126,
			"count":1168,
			"max":[
				77.99964904785156,
				1.399999976158142,
				77.9996337890625
			],
			"min":[
				-77.99964904785156,
				1.7319479184152442e-14,
				-77.9996337890625
			],
			"type":"VEC3"
		},
		{
			"bufferView":25,
			"componentType":5126,
			"count":1168,
			"type":"VEC3"
		},
		{
			"bufferView":26,
			"componentType":5123,
			"count":2304,
			"type":"SCALAR"
		},
		{
			"bufferView":27,
			"componentType":5126,
			"count":16,
			"max":[
				3.4827897548675537,
				7.343619346618652,
				3.398866653442383
			],
			"min":[
				-3.4827897548675537,
				-7.343619346618652,
				-0.1198875904083252
			],
			"type":"VEC3"
		},
		{
			"bufferView":28,
			"componentType":5126,
			"count":16,
			"type":"VEC3"
		},
		{
			"bufferView":29,
			"componentType":5126,
			"count":16,
			"type":"VEC2"
		},
		{
			"bufferView":30,
			"componentType":5123,
			"count":18,
			"type":"SCALAR"
		},
		{
			"bufferView":31,
			"componentType":5126,
			"count":10,
			"max":[
				17.092260360717773,
				0,
				0
			],
			"min":[
				1.7915399074554443,
				0,
				-16.511220932006836
			],
			"type":"VEC3"
		},
		{
			"bufferView":32,
			"componentType":5126,
			"count":10,
			"type":"VEC3"
		},
		{
			"bufferView":33,
			"componentType":5126,
			"count":10,
			"type":"VEC2"
		},
		{
			"bufferView":34,
			"componentType":5123,
			"count":24,
			"type":"SCALAR"
		}
	],
	"bufferViews":[
		{
			"buffer":0,
			"byteLength":384036,
			"byteOffset":0,
			"target":34962
		},
		{
			"buffer":0,
			"byteLength":384036,
			"byteOffset":384036,
			"target":34962
		},
		{
			"buffer":0,
			"byteLength":108048,
			"byteOffset":768072,
			"target":34963
		},
		{
			"buffer":0,
			"byteLength":92304,
			"byteOffset":876120,
			"target":34962
		},
		{
			"buffer":0,
			"byteLength":92304,
			"byteOffset":968424,
			"target":34962
		},
		{
			"buffer":0,
			"byteLength":26448,
			"byteOffset":1060728,
			"target":34963
		},
		{
			"buffer":0,
			"byteLength":47112,
			"byteOffset":1087176,
			"target":34962
		},
		{
			"buffer":0,
			"byteLength":47112,
			"byteOffset":1134288,
			"target":34962
		},
		{
			"buffer":0,
			"byteLength":11760,
			"byteOffset":1181400,
			"target":34963
		},
		{
			"buffer":0,
			"byteLength":616320,
			"byteOffset":1193160,
			"target":34962
		},
		{
			"buffer":0,
			"byteLength":616320,
			"byteOffset":1809480,
			"target":34962
		},
		{
			"buffer":0,
			"byteLength":213408,
			"byteOffset":2425800,
			"target":34963
		},
		{
			"buffer":0,
			"byteLength":1572648,
			"byteOffset":2639208,
			"target":34962
		},
		{
			"buffer":0,
			"byteLength":1572648,
			"byteOffset":4211856,
			"target":34962
		},
		{
			"buffer":0,
			"byteLength":766752,
			"byteOffset":5784504,
			"target":34963
		},
		{
			"buffer":0,
			"byteLength":51288,
			"byteOffset":6551256,
			"target":34962
		},
		{
			"buffer":0,
			"byteLength":51288,
			"byteOffset":6602544,
			"target":34962
		},
		{
			"buffer":0,
			"byteLength":12624,
			"byteOffset":6653832,
			"target":34963
		},
		{
			"buffer":0,
			"byteLength":214608,
			"byteOffset":6666456,
			"target":34962
		},
		{
			"buffer":0,
			"byteLength":214608,
			"byteOffset":6881064,
			"target":34962
		},
		{
			"buffer":0,
			"byteLength":51864,
			"byteOffset":7095672,
			"target":34963
		},
		{
			"buffer":0,
			"byteLength":170904,
			"byteOffset":7147536,
			"target":34962
		},
		{
			"buffer":0,
			"byteLength":170904,
			"byteOffset":7318440,
			"target":34962
		},
		{
			"buffer":0,
			"byteLength":81504,
			"byteOffset":7489344,
			"target":34963
		},
		{
			"buffer":0,
			"byteLength":14016,
			"byteOffset":7570848,
			"target":34962
		},
		{
			"buffer":0,
			"byteLength":14016,
			"byteOffset":7584864,
			"target":34962
		},
		{
			"buffer":0,
			"byteLength":4608,
			"byteOffset":7598880,
			"target":34963
		},
		{
			"buffer":0,
			"byteLength":192,
			"byteOffset":7603488,
			"target":34962
		},
		{
			"buffer":0,
			"byteLength":192,
			"byteOffset":7603680,
			"target":34962
		},
		{
			"buffer":0,
			"byteLength":128,
			"byteOffset":7603872,
			"target":34962
		},
		{
			"buffer":0,
			"byteLength":36,
			"byteOffset":7604000,
			"target":34963
		},
		{
			"buffer":0,
			"byteLength":120,
			"byteOffset":7604036,
			"target":34962
		},
		{
			"buffer":0,
			"byteLength":120,
			"byteOffset":7604156,
			"target":34962
		},
		{
			"buffer":0,
			"byteLength":80,
			"byteOffset":7604276,
			"target":34962
		},
		{
			"buffer":0,
			"byteLength":48,
			"byteOffset":7604356,
			"target":34963
		}
	],
	"buffers":[
		{
			"byteLength":7604404,
			"uri":"Ezeiza.bin"
		}
	]
}
