{
	"asset":{
		"generator":"Khronos glTF Blender I/O v4.5.48",
		"version":"2.0"
	},
	"scene":0,
	"scenes":[
		{
			"name":"Scene",
			"nodes":[
				0,
				1,
				2,
				3,
				4,
				5,
				6,
				7,
				8,
				9,
				10,
				11,
				12,
				13,
				14,
				15,
				16,
				17
			]
		}
	],
	"nodes":[
		{
			"mesh":0,
			"name":"BateryPark"
		},
		{
			"mesh":1,
			"name":"Body.001",
			"rotation":[
				0.5000000596046448,
				-0.5,
				0.4999999403953552,
				0.5
			]
		},
		{
			"mesh":2,
			"name":"Logos.001",
			"rotation":[
				0.5000000596046448,
				-0.5,
				0.4999999403953552,
				0.5
			]
		},
		{
			"mesh":3,
			"name":"CalfFrontLeft.001",
			"rotation":[
				0.5,
				-0.5,
				0.5,
				0.5
			],
			"translation":[
				0.14121609926223755,
				0.1046690121293068,
				0.19921277463436127
			]
		},
		{
			"mesh":4,
			"name":"LegFrontLeft.001",
			"rotation":[
				0.5,
				-0.5,
				0.5,
				0.5
			],
			"translation":[
				0.1098489984869957,
				0.41999998688697815,
				0.1899999976158142
			]
		},
		{
			"mesh":5,
			"name":"LeftFrontMotor.001",
			"rotation":[
				0.5,
				-0.5,
				0.5,
				0.5
			]
		},
		{
			"mesh":6,
			"name":"CalfFrontRight.001",
			"rotation":[
				0.5000001192092896,
				-0.5,
				0.5,
				0.5000000596046448
			]
		},
		{
			"mesh":7,
			"name":"LegRightFront.001",
			"rotation":[
				0.5,
				-0.5,
				0.5,
				0.5
			],
			"translation":[
				-0.1098489984869957,
				0.41999998688697815,
				0.1899999976158142
			]
		},
		{
			"mesh":8,
			"name":"RightFrontMotor.001",
			"rotation":[
				0.4973260760307312,
				-0.5026598572731018,
				0.49732595682144165,
				0.502659797668457
			]
		},
		{
			"mesh":9,
			"name":"CalfBackLeft.001",
			"rotation":[
				0.5000000596046448,
				-0.5,
				0.4999999403953552,
				0.5
			],
			"translation":[
				0,
				0.0008838580688461661,
				0
			]
		},
		{
			"mesh":10,
			"name":"LeftMotor.001",
			"rotation":[
				-0.3467458486557007,
				0.34855860471725464,
				0.6152293086051941,
				0.6162525415420532
			],
			"translation":[
				0,
				-0.030198488384485245,
				-0.2534331679344177
			]
		},
		{
			"mesh":11,
			"name":"LegBackLeft.001",
			"rotation":[
				0.5000000596046448,
				-0.5,
				0.4999999403953552,
				0.5
			],
			"translation":[
				0.10786169767379761,
				0.4227088391780853,
				-0.19689901173114777
			]
		},
		{
			"mesh":12,
			"name":"HeadSensor.001",
			"rotation":[
				0.5000000596046448,
				-0.5,
				0.4999999403953552,
				0.5
			]
		},
		{
			"mesh":13,
			"name":"CalfBackRight.001",
			"rotation":[
				0.49973347783088684,
				-0.49973341822624207,
				0.5002664923667908,
				0.5002664923667908
			],
			"translation":[
				0,
				0.0007365484489127994,
				0
			]
		},
		{
			"mesh":14,
			"name":"RightMotor.001",
			"rotation":[
				0.4999538064002991,
				0.49999988079071045,
				-0.5,
				0.5000463128089905
			]
		},
		{
			"mesh":15,
			"name":"LegBackRight.001",
			"rotation":[
				0.5001237988471985,
				-0.5001237392425537,
				0.4998762011528015,
				0.4998762607574463
			],
			"translation":[
				-0.10786078125238419,
				0.42124518752098083,
				-0.19683359563350677
			]
		},
		{
			"mesh":16,
			"name":"BateryPark.001",
			"rotation":[
				0.4868810474872589,
				0.5118748545646667,
				-0.489613801240921,
				0.5110864639282227
			],
			"scale":[
				0.48467522859573364,
				0.6999976634979248,
				0.6999994516372681
			]
		},
		{
			"mesh":17,
			"name":"TrackingModule.001",
			"rotation":[
				0.0020142460707575083,
				0.9999772906303406,
				0.006190198007971048,
				0.0017372549045830965
			],
			"scale":[
				3.043818950653076,
				2.257067918777466,
				2.6778414249420166
			]
		}
	],
	"animations":[
		{
			"channels":[
				{
					"sampler":0,
					"target":{
						"node":1,
						"path":"translation"
					}
				},
				{
					"sampler":1,
					"target":{
						"node":1,
						"path":"rotation"
					}
				},
				{
					"sampler":2,
					"target":{
						"node":1,
						"path":"scale"
					}
				}
			],
			"name":"Body.001Action",
			"samplers":[
				{
					"input":96,
					"interpolation":"LINEAR",
					"output":97
				},
				{
					"input":98,
					"interpolation":"STEP",
					"output":99
				},
				{
					"input":98,
					"interpolation":"STEP",
					"output":100
				}
			]
		},
		{
			"channels":[
				{
					"sampler":0,
					"target":{
						"node":2,
						"path":"translation"
					}
				},
				{
					"sampler":1,
					"target":{
						"node":2,
						"path":"rotation"
					}
				},
				{
					"sampler":2,
					"target":{
						"node":2,
						"path":"scale"
					}
				}
			],
			"name":"Logos.001Action",
			"samplers":[
				{
					"input":96,
					"interpolation":"LINEAR",
					"output":101
				},
				{
					"input":98,
					"interpolation":"STEP",
					"output":99
				},
				{
					"input":98,
					"interpolation":"STEP",
					"output":100
				}
			]
		},
		{
			"channels":[
				{
					"sampler":0,
					"target":{
						"node":3,
						"path":"translation"
					}
				},
				{
					"sampler":1,
					"target":{
						"node":3,
						"path":"rotation"
					}
				}
			],
			"name":"CalfFrontLeft.001Action",
			"samplers":[
				{
					"input":96,
					"interpolation":"LINEAR",
					"output":102
				},
				{
					"input":96,
					"interpolation":"LINEAR",
					"output":103
				}
			]
		},
		{
			"channels":[
				{
					"sampler":0,
					"target":{
						"node":4,
						"path":"translation"
					}
				},
				{
					"sampler":1,
					"target":{
						"node":4,
						"path":"rotation"
					}
				}
			],
			"name":"LegFrontLeft.001Action",
			"samplers":[
				{
					"input":96,
					"interpolation":"LINEAR",
					"output":104
				},
				{
					"input":96,
					"interpolation":"LINEAR",
					"output":105
				}
			]
		},
		{
			"channels":[
				{
					"sampler":0,
					"target":{
						"node":5,
						"path":"translation"
					}
				},
				{
					"sampler":1,
					"target":{
						"node":5,
						"path":"rotation"
					}
				}
			],
			"name":"LeftFrontMotor.001Action",
			"samplers":[
				{
					"input":96,
					"interpolation":"LINEAR",
					"output":106
				},
				{
					"input":96,
					"interpolation":"LINEAR",
					"output":107
				}
			]
		},
		{
			"channels":[
				{
					"sampler":0,
					"target":{
						"node":6,
						"path":"translation"
					}
				},
				{
					"sampler":1,
					"target":{
						"node":6,
						"path":"rotation"
					}
				}
			],
			"name":"CalfFrontRight.001Action",
			"samplers":[
				{
					"input":96,
					"interpolation":"LINEAR",
					"output":108
				},
				{
					"input":96,
					"interpolation":"LINEAR",
					"output":109
				}
			]
		},
		{
			"channels":[
				{
					"sampler":0,
					"target":{
						"node":7,
						"path":"translation"
					}
				},
				{
					"sampler":1,
					"target":{
						"node":7,
						"path":"rotation"
					}
				}
			],
			"name":"LegRightFront.001Action",
			"samplers":[
				{
					"input":96,
					"interpolation":"LINEAR",
					"output":110
				},
				{
					"input":96,
					"interpolation":"LINEAR",
					"output":105
				}
			]
		},
		{
			"channels":[
				{
					"sampler":0,
					"target":{
						"node":8,
						"path":"translation"
					}
				},
				{
					"sampler":1,
					"target":{
						"node":8,
						"path":"rotation"
					}
				}
			],
			"name":"RightFrontMotor.001Action",
			"samplers":[
				{
					"input":96,
					"interpolation":"LINEAR",
					"output":111
				},
				{
					"input":98,
					"interpolation":"STEP",
					"output":112
				}
			]
		},
		{
			"channels":[
				{
					"sampler":0,
					"target":{
						"node":9,
						"path":"translation"
					}
				},
				{
					"sampler":1,
					"target":{
						"node":9,
						"path":"rotation"
					}
				},
				{
					"sampler":2,
					"target":{
						"node":9,
						"path":"scale"
					}
				}
			],
			"name":"CalfBackLeft.001Action",
			"samplers":[
				{
					"input":96,
					"interpolation":"LINEAR",
					"output":113
				},
				{
					"input":96,
					"interpolation":"LINEAR",
					"output":114
				},
				{
					"input":98,
					"interpolation":"STEP",
					"output":115
				}
			]
		},
		{
			"channels":[
				{
					"sampler":0,
					"target":{
						"node":10,
						"path":"translation"
					}
				},
				{
					"sampler":1,
					"target":{
						"node":10,
						"path":"rotation"
					}
				}
			],
			"name":"LeftMotor.001Action",
			"samplers":[
				{
					"input":96,
					"interpolation":"LINEAR",
					"output":116
				},
				{
					"input":98,
					"interpolation":"STEP",
					"output":117
				}
			]
		},
		{
			"channels":[
				{
					"sampler":0,
					"target":{
						"node":11,
						"path":"translation"
					}
				},
				{
					"sampler":1,
					"target":{
						"node":11,
						"path":"rotation"
					}
				}
			],
			"name":"LegBackLeft.001Action",
			"samplers":[
				{
					"input":96,
					"interpolation":"LINEAR",
					"output":118
				},
				{
					"input":96,
					"interpolation":"LINEAR",
					"output":119
				}
			]
		},
		{
			"channels":[
				{
					"sampler":0,
					"target":{
						"node":12,
						"path":"translation"
					}
				},
				{
					"sampler":1,
					"target":{
						"node":12,
						"path":"rotation"
					}
				},
				{
					"sampler":2,
					"target":{
						"node":12,
						"path":"scale"
					}
				}
			],
			"name":"HeadSensor.001Action",
			"samplers":[
				{
					"input":96,
					"interpolation":"LINEAR",
					"output":101
				},
				{
					"input":98,
					"interpolation":"STEP",
					"output":99
				},
				{
					"input":98,
					"interpolation":"STEP",
					"output":100
				}
			]
		},
		{
			"channels":[
				{
					"sampler":0,
					"target":{
						"node":13,
						"path":"translation"
					}
				},
				{
					"sampler":1,
					"target":{
						"node":13,
						"path":"rotation"
					}
				}
			],
			"name":"CalfBackRight.001Action",
			"samplers":[
				{
					"input":96,
					"interpolation":"LINEAR",
					"output":120
				},
				{
					"input":96,
					"interpolation":"LINEAR",
					"output":121
				}
			]
		},
		{
			"channels":[
				{
					"sampler":0,
					"target":{
						"node":14,
						"path":"translation"
					}
				}
			],
			"name":"RightMotor.001Action",
			"samplers":[
				{
					"input":96,
					"interpolation":"LINEAR",
					"output":122
				}
			]
		},
		{
			"channels":[
				{
					"sampler":0,
					"target":{
						"node":15,
						"path":"translation"
					}
				},
				{
					"sampler":1,
					"target":{
						"node":15,
						"path":"rotation"
					}
				}
			],
			"name":"LegBackRight.001Action",
			"samplers":[
				{
					"input":96,
					"interpolation":"LINEAR",
					"output":123
				},
				{
					"input":96,
					"interpolation":"LINEAR",
					"output":124
				}
			]
		},
		{
			"channels":[
				{
					"sampler":0,
					"target":{
						"node":16,
						"path":"translation"
					}
				},
				{
					"sampler":1,
					"target":{
						"node":16,
						"path":"rotation"
					}
				},
				{
					"sampler":2,
					"target":{
						"node":16,
						"path":"scale"
					}
				}
			],
			"name":"BateryPark.001Action",
			"samplers":[
				{
					"input":96,
					"interpolation":"LINEAR",
					"output":125
				},
				{
					"input":98,
					"interpolation":"STEP",
					"output":126
				},
				{
					"input":98,
					"interpolation":"STEP",
					"output":127
				}
			]
		}
	],
	"materials":[
		{
			"doubleSided":true,
			"name":"Material",
			"pbrMetallicRoughness":{
				"baseColorFactor":[
					0.800000011920929,
					0.800000011920929,
					0.800000011920929,
					1
				],
				"metallicFactor":0,
				"roughnessFactor":0.5
			}
		},
		{
			"doubleSided":true,
			"name":"material_4C4C4C",
			"pbrMetallicRoughness":{
				"baseColorFactor":[
					0.6866804957389832,
					0.7083764672279358,
					0.7230554223060608,
					1
				],
				"metallicFactor":0
			}
		},
		{
			"doubleSided":true,
			"name":"material_100100100",
			"pbrMetallicRoughness":{
				"metallicFactor":0
			}
		},
		{
			"doubleSided":true,
			"name":"material_737373",
			"pbrMetallicRoughness":{
				"baseColorFactor":[
					0.5647076964378357,
					0.5840790867805481,
					0.5972022414207458,
					1
				],
				"metallicFactor":0.4617156982421875,
				"roughnessFactor":0.6689544320106506
			}
		},
		{
			"doubleSided":true,
			"name":"material_CCC",
			"pbrMetallicRoughness":{
				"baseColorFactor":[
					0.01773197017610073,
					0.01692909561097622,
					0.01692909561097622,
					1
				],
				"metallicFactor":0,
				"roughnessFactor":0.8944789171218872
			}
		},
		{
			"alphaMode":"MASK",
			"doubleSided":true,
			"name":"Invisible",
			"pbrMetallicRoughness":{
				"baseColorFactor":[
					0.7990972995758057,
					0.7991039752960205,
					0,
					0
				],
				"metallicFactor":0,
				"roughnessFactor":0.5
			}
		},
		{
			"doubleSided":true,
			"name":"material_CCC.001",
			"pbrMetallicRoughness":{
				"baseColorFactor":[
					0.01773197017610073,
					0.01692909561097622,
					0.01692909561097622,
					1
				],
				"metallicFactor":0,
				"roughnessFactor":0.8944789171218872
			}
		},
		{
			"doubleSided":true,
			"name":"material_CCC.002",
			"pbrMetallicRoughness":{
				"baseColorFactor":[
					0.01773197017610073,
					0.01692909561097622,
					0.01692909561097622,
					1
				],
				"metallicFactor":0,
				"roughnessFactor":0.8944789171218872
			}
		},
		{
			"doubleSided":true,
			"name":"material_CCC.003",
			"pbrMetallicRoughness":{
				"baseColorFactor":[
					0.01773197017610073,
					0.01692909561097622,
					0.01692909561097622,
					1
				],
				"metallicFactor":0,
				"roughnessFactor":0.8944789171218872
			}
		}
	],
	"meshes":[
		{
			"name":"Cube.001",
			"primitives":[
				{
					"attributes":{
						"POSITION":0,
						"NORMAL":1,
						"TEXCOORD_0":2
					},
					"indices":3,
					"material":0
				},
				{
					"attributes":{
						"POSITION":4,
						"NORMAL":5,
						"TEXCOORD_0":6
					},
					"indices":7,
					"material":1
				},
				{
					"attributes":{
						"POSITION":8,
						"NORMAL":9,
						"TEXCOORD_0":10
					},
					"indices":11,
					"material":2
				},
				{
					"attributes":{
						"POSITION":12,
						"NORMAL":13,
						"TEXCOORD_0":14
					},
					"indices":15,
					"material":3
				},
				{
					"attributes":{
						"POSITION":16,
						"NORMAL":17,
						"TEXCOORD_0":18
					},
					"indices":19,
					"material":4
				},
				{
					"attributes":{
						"POSITION":20,
						"NORMAL":21,
						"TEXCOORD_0":22
					},
					"indices":3,
					"material":5
				}
			]
		},
		{
			"name":"Object_0.001",
			"primitives":[
				{
					"attributes":{
						"POSITION":23,
						"NORMAL":24,
						"TEXCOORD_0":25
					},
					"indices":26,
					"material":1
				}
			]
		},
		{
			"name":"Object_11.001",
			"primitives":[
				{
					"attributes":{
						"POSITION":27,
						"NORMAL":28
					},
					"indices":29,
					"material":2
				}
			]
		},
		{
			"name":"Object_12.001",
			"primitives":[
				{
					"attributes":{
						"POSITION":30,
						"NORMAL":31
					},
					"indices":32,
					"material":3
				},
				{
					"attributes":{
						"POSITION":33,
						"NORMAL":34
					},
					"indices":35,
					"material":4
				}
			]
		},
		{
			"name":"Object_16.001",
			"primitives":[
				{
					"attributes":{
						"POSITION":36,
						"NORMAL":37
					},
					"indices":38,
					"material":3
				}
			]
		},
		{
			"name":"Object_17.001",
			"primitives":[
				{
					"attributes":{
						"POSITION":39,
						"NORMAL":40
					},
					"indices":41,
					"material":1
				},
				{
					"attributes":{
						"POSITION":42,
						"NORMAL":43
					},
					"indices":44,
					"material":3
				}
			]
		},
		{
			"name":"Object_18.001",
			"primitives":[
				{
					"attributes":{
						"POSITION":45,
						"NORMAL":46
					},
					"indices":47,
					"material":3
				},
				{
					"attributes":{
						"POSITION":48,
						"NORMAL":49
					},
					"indices":35,
					"material":6
				}
			]
		},
		{
			"name":"Object_22.001",
			"primitives":[
				{
					"attributes":{
						"POSITION":50,
						"NORMAL":51
					},
					"indices":52,
					"material":3
				}
			]
		},
		{
			"name":"Object_23.001",
			"primitives":[
				{
					"attributes":{
						"POSITION":53,
						"NORMAL":54
					},
					"indices":55,
					"material":1
				},
				{
					"attributes":{
						"POSITION":56,
						"NORMAL":57
					},
					"indices":58,
					"material":3
				}
			]
		},
		{
			"name":"Object_24.001",
			"primitives":[
				{
					"attributes":{
						"POSITION":59,
						"NORMAL":60
					},
					"indices":61,
					"material":3
				},
				{
					"attributes":{
						"POSITION":62,
						"NORMAL":63
					},
					"indices":35,
					"material":7
				}
			]
		},
		{
			"name":"Object_26.001",
			"primitives":[
				{
					"attributes":{
						"POSITION":64,
						"NORMAL":65
					},
					"indices":66,
					"material":3
				},
				{
					"attributes":{
						"POSITION":67,
						"NORMAL":68
					},
					"indices":69,
					"material":1
				}
			]
		},
		{
			"name":"Object_28.001",
			"primitives":[
				{
					"attributes":{
						"POSITION":70,
						"NORMAL":71
					},
					"indices":72,
					"material":3
				}
			]
		},
		{
			"name":"Object_3.001",
			"primitives":[
				{
					"attributes":{
						"POSITION":73,
						"NORMAL":74
					},
					"indices":75,
					"material":4
				}
			]
		},
		{
			"name":"Object_30.001",
			"primitives":[
				{
					"attributes":{
						"POSITION":76,
						"NORMAL":77
					},
					"indices":78,
					"material":3
				},
				{
					"attributes":{
						"POSITION":79,
						"NORMAL":80
					},
					"indices":35,
					"material":8
				}
			]
		},
		{
			"name":"Object_32.001",
			"primitives":[
				{
					"attributes":{
						"POSITION":81,
						"NORMAL":82
					},
					"indices":83,
					"material":3
				},
				{
					"attributes":{
						"POSITION":84,
						"NORMAL":85
					},
					"indices":86,
					"material":1
				}
			]
		},
		{
			"name":"Object_34.001",
			"primitives":[
				{
					"attributes":{
						"POSITION":87,
						"NORMAL":88
					},
					"indices":89,
					"material":3
				}
			]
		},
		{
			"name":"Cube.003",
			"primitives":[
				{
					"attributes":{
						"POSITION":90,
						"NORMAL":91,
						"TEXCOORD_0":92
					},
					"indices":3,
					"material":4
				}
			]
		},
		{
			"name":"Cube.004",
			"primitives":[
				{
					"attributes":{
						"POSITION":93,
						"NORMAL":94,
						"TEXCOORD_0":95
					},
					"indices":3,
					"material":5
				}
			]
		}
	],
	"accessors":[
		{
			"bufferView":0,
			"componentType":5126,
			"count":24,
			"max":[
				0.11953126639127731,
				0.17099438607692719,
				-0.6135949492454529
			],
			"min":[
				-0.09897349029779434,
				0.15888972580432892,
				-0.6372634768486023
			],
			"type":"VEC3"
		},
		{
			"bufferView":1,
			"componentType":5126,
			"count":24,
			"type":"VEC3"
		},
		{
			"bufferView":2,
			"componentType":5126,
			"count":24,
			"type":"VEC2"
		},
		{
			"bufferView":3,
			"componentType":5123,
			"count":36,
			"type":"SCALAR"
		},
		{
			"bufferView":4,
			"componentType":5126,
			"count":390417,
			"max":[
				0.4978772699832916,
				0.25734150409698486,
				-0.5012906789779663
			],
			"min":[
				-0.6870240569114685,
				-0.19766899943351746,
				-0.7696046829223633
			],
			"type":"VEC3"
		},
		{
			"bufferView":5,
			"componentType":5126,
			"count":390417,
			"type":"VEC3"
		},
		{
			"bufferView":6,
			"componentType":5126,
			"count":390417,
			"type":"VEC2"
		},
		{
			"bufferView":7,
			"componentType":5125,
			"count":544089,
			"type":"SCALAR"
		},
		{
			"bufferView":8,
			"componentType":5126,
			"count":491886,
			"max":[
				0.18969246745109558,
				0.1698950231075287,
				-0.6591694951057434
			],
			"min":[
				-0.6772610545158386,
				-0.10696783661842346,
				-0.7234691381454468
			],
			"type":"VEC3"
		},
		{
			"bufferView":9,
			"componentType":5126,
			"count":491886,
			"type":"VEC3"
		},
		{
			"bufferView":10,
			"componentType":5126,
			"count":491886,
			"type":"VEC2"
		},
		{
			"bufferView":11,
			"componentType":5125,
			"count":493356,
			"type":"SCALAR"
		},
		{
			"bufferView":12,
			"componentType":5126,
			"count":311231,
			"max":[
				0.49749091267585754,
				0.2530394196510315,
				-0.013926796615123749
			],
			"min":[
				-0.501254141330719,
				-0.2307337075471878,
				-0.7213460206985474
			],
			"type":"VEC3"
		},
		{
			"bufferView":13,
			"componentType":5126,
			"count":311231,
			"type":"VEC3"
		},
		{
			"bufferView":14,
			"componentType":5126,
			"count":311231,
			"type":"VEC2"
		},
		{
			"bufferView":15,
			"componentType":5125,
			"count":514254,
			"type":"SCALAR"
		},
		{
			"bufferView":16,
			"componentType":5126,
			"count":111465,
			"max":[
				0.45366260409355164,
				0.23328141868114471,
				0.00762561708688736
			],
			"min":[
				-0.6829977035522461,
				-0.23277124762535095,
				-0.7220174670219421
			],
			"type":"VEC3"
		},
		{
			"bufferView":17,
			"componentType":5126,
			"count":111465,
			"type":"VEC3"
		},
		{
			"bufferView":18,
			"componentType":5126,
			"count":111465,
			"type":"VEC2"
		},
		{
			"bufferView":19,
			"componentType":5125,
			"count":111729,
			"type":"SCALAR"
		},
		{
			"bufferView":20,
			"componentType":5126,
			"count":24,
			"max":[
				-0.40749573707580566,
				0.06244298070669174,
				-0.756783127784729
			],
			"min":[
				-0.5089229941368103,
				0.005508929491043091,
				-0.7726134061813354
			],
			"type":"VEC3"
		},
		{
			"bufferView":21,
			"componentType":5126,
			"count":24,
			"type":"VEC3"
		},
		{
			"bufferView":22,
			"componentType":5126,
			"count":24,
			"type":"VEC2"
		},
		{
			"bufferView":23,
			"componentType":5126,
			"count":177105,
			"max":[
				0.33195793628692627,
				0.09722297638654709,
				-0.35384100675582886
			],
			"min":[
				-0.1279979646205902,
				-0.09677696973085403,
				-0.5388339757919312
			],
			"type":"VEC3"
		},
		{
			"bufferView":24,
			"componentType":5126,
			"count":177105,
			"type":"VEC3"
		},
		{
			"bufferView":25,
			"componentType":5126,
			"count":177105,
			"type":"VEC2"
		},
		{
			"bufferView":26,
			"componentType":5125,
			"count":178269,
			"type":"SCALAR"
		},
		{
			"bufferView":27,
			"componentType":5126,
			"count":485447,
			"max":[
				0.3272639513015747,
				0.09672683477401733,
				-0.46649858355522156
			],
			"min":[
				-0.09323566406965256,
				-0.09706424176692963,
				-0.5045362710952759
			],
			"type":"VEC3"
		},
		{
			"bufferView":28,
			"componentType":5126,
			"count":485447,
			"type":"VEC3"
		},
		{
			"bufferView":29,
			"componentType":5125,
			"count":493356,
			"type":"SCALAR"
		},
		{
			"bufferView":30,
			"componentType":5126,
			"count":5584,
			"max":[
				0.025739282369613647,
				0.01786002516746521,
				0.08785855770111084
			],
			"min":[
				-0.026500612497329712,
				-0.01948590576648712,
				-0.1639743149280548
			],
			"type":"VEC3"
		},
		{
			"bufferView":31,
			"componentType":5126,
			"count":5584,
			"type":"VEC3"
		},
		{
			"bufferView":32,
			"componentType":5123,
			"count":19461,
			"type":"SCALAR"
		},
		{
			"bufferView":33,
			"componentType":5126,
			"count":13212,
			"max":[
				0.01346518099308014,
				0.01899215579032898,
				0.10302962362766266
			],
			"min":[
				-0.03184272348880768,
				-0.020614832639694214,
				0.06423863768577576
			],
			"type":"VEC3"
		},
		{
			"bufferView":34,
			"componentType":5126,
			"count":13212,
			"type":"VEC3"
		},
		{
			"bufferView":35,
			"componentType":5123,
			"count":13212,
			"type":"SCALAR"
		},
		{
			"bufferView":36,
			"componentType":5126,
			"count":18189,
			"max":[
				0.049985989928245544,
				0.014257676899433136,
				0.19948582351207733
			],
			"min":[
				-0.042513906955718994,
				-0.050209350883960724,
				-0.07674017548561096
			],
			"type":"VEC3"
		},
		{
			"bufferView":37,
			"componentType":5126,
			"count":18189,
			"type":"VEC3"
		},
		{
			"bufferView":38,
			"componentType":5123,
			"count":55080,
			"type":"SCALAR"
		},
		{
			"bufferView":39,
			"componentType":5126,
			"count":53012,
			"max":[
				0.24186395108699799,
				-0.00841599702835083,
				-0.4011624753475189
			],
			"min":[
				0.1320839822292328,
				-0.1586209386587143,
				-0.5011314153671265
			],
			"type":"VEC3"
		},
		{
			"bufferView":40,
			"componentType":5126,
			"count":53012,
			"type":"VEC3"
		},
		{
			"bufferView":41,
			"componentType":5123,
			"count":91455,
			"type":"SCALAR"
		},
		{
			"bufferView":42,
			"componentType":5126,
			"count":53463,
			"max":[
				0.24183382093906403,
				-0.01680898666381836,
				-0.40415748953819275
			],
			"min":[
				0.12378397583961487,
				-0.07480888813734055,
				-0.49665746092796326
			],
			"type":"VEC3"
		},
		{
			"bufferView":43,
			"componentType":5126,
			"count":53463,
			"type":"VEC3"
		},
		{
			"bufferView":44,
			"componentType":5123,
			"count":54030,
			"type":"SCALAR"
		},
		{
			"bufferView":45,
			"componentType":5126,
			"count":5578,
			"max":[
				0.2258358895778656,
				0.16240203380584717,
				-0.016810491681098938
			],
			"min":[
				0.17359599471092224,
				0.12505610287189484,
				-0.2686433792114258
			],
			"type":"VEC3"
		},
		{
			"bufferView":46,
			"componentType":5126,
			"count":5578,
			"type":"VEC3"
		},
		{
			"bufferView":47,
			"componentType":5123,
			"count":19461,
			"type":"SCALAR"
		},
		{
			"bufferView":48,
			"componentType":5126,
			"count":13212,
			"max":[
				0.21267788112163544,
				0.16327603161334991,
				-0.0016394939739257097
			],
			"min":[
				0.1673699915409088,
				0.12366903573274612,
				-0.04043048247694969
			],
			"type":"VEC3"
		},
		{
			"bufferView":49,
			"componentType":5126,
			"count":13212,
			"type":"VEC3"
		},
		{
			"bufferView":50,
			"componentType":5126,
			"count":18181,
			"max":[
				0.04992055892944336,
				0.050210140645504,
				0.19941209256649017
			],
			"min":[
				-0.04257933795452118,
				-0.014256812632083893,
				-0.07681390643119812
			],
			"type":"VEC3"
		},
		{
			"bufferView":51,
			"componentType":5126,
			"count":18181,
			"type":"VEC3"
		},
		{
			"bufferView":52,
			"componentType":5123,
			"count":55065,
			"type":"SCALAR"
		},
		{
			"bufferView":53,
			"componentType":5126,
			"count":53058,
			"max":[
				0.2418639212846756,
				0.15862102806568146,
				-0.40145453810691833
			],
			"min":[
				0.1320839524269104,
				0.008415862917900085,
				-0.5011314153671265
			],
			"type":"VEC3"
		},
		{
			"bufferView":54,
			"componentType":5126,
			"count":53058,
			"type":"VEC3"
		},
		{
			"bufferView":55,
			"componentType":5123,
			"count":91455,
			"type":"SCALAR"
		},
		{
			"bufferView":56,
			"componentType":5126,
			"count":53465,
			"max":[
				0.24183383584022522,
				0.07480894774198532,
				-0.40445005893707275
			],
			"min":[
				0.12378396838903427,
				0.01680903136730194,
				-0.49695250391960144
			],
			"type":"VEC3"
		},
		{
			"bufferView":57,
			"componentType":5126,
			"count":53465,
			"type":"VEC3"
		},
		{
			"bufferView":58,
			"componentType":5123,
			"count":54030,
			"type":"SCALAR"
		},
		{
			"bufferView":59,
			"componentType":5126,
			"count":5586,
			"max":[
				-0.16096407175064087,
				-0.12335611879825592,
				-0.016810372471809387
			],
			"min":[
				-0.21320395171642303,
				-0.16070204973220825,
				-0.26864326000213623
			],
			"type":"VEC3"
		},
		{
			"bufferView":60,
			"componentType":5126,
			"count":5586,
			"type":"VEC3"
		},
		{
			"bufferView":61,
			"componentType":5123,
			"count":19461,
			"type":"SCALAR"
		},
		{
			"bufferView":62,
			"componentType":5126,
			"count":13212,
			"max":[
				-0.17412200570106506,
				-0.12222399562597275,
				-0.0007555602351203561
			],
			"min":[
				-0.21942992508411407,
				-0.16183097660541534,
				-0.03954654932022095
			],
			"type":"VEC3"
		},
		{
			"bufferView":63,
			"componentType":5126,
			"count":13212,
			"type":"VEC3"
		},
		{
			"bufferView":64,
			"componentType":5126,
			"count":53457,
			"max":[
				0.24179203808307648,
				-0.015482380986213684,
				0.4971042275428772
			],
			"min":[
				0.12374219298362732,
				-0.07348228245973587,
				0.4046042561531067
			],
			"type":"VEC3"
		},
		{
			"bufferView":65,
			"componentType":5126,
			"count":53457,
			"type":"VEC3"
		},
		{
			"bufferView":66,
			"componentType":5123,
			"count":54030,
			"type":"SCALAR"
		},
		{
			"bufferView":67,
			"componentType":5126,
			"count":53043,
			"max":[
				0.2418203055858612,
				-0.007088914513587952,
				0.5015097260475159
			],
			"min":[
				0.13199946284294128,
				-0.15728993713855743,
				0.40159469842910767
			],
			"type":"VEC3"
		},
		{
			"bufferView":68,
			"componentType":5126,
			"count":53043,
			"type":"VEC3"
		},
		{
			"bufferView":69,
			"componentType":5123,
			"count":91455,
			"type":"SCALAR"
		},
		{
			"bufferView":70,
			"componentType":5126,
			"count":18203,
			"max":[
				0.04998597502708435,
				0.01425769180059433,
				0.1994858831167221
			],
			"min":[
				-0.04251392185688019,
				-0.05020933598279953,
				-0.07674011588096619
			],
			"type":"VEC3"
		},
		{
			"bufferView":71,
			"componentType":5126,
			"count":18203,
			"type":"VEC3"
		},
		{
			"bufferView":72,
			"componentType":5123,
			"count":66330,
			"type":"SCALAR"
		},
		{
			"bufferView":73,
			"componentType":5126,
			"count":58038,
			"max":[
				0.33020395040512085,
				0.04217497631907463,
				-0.3537154197692871
			],
			"min":[
				0.24780094623565674,
				-0.04172898456454277,
				-0.506510317325592
			],
			"type":"VEC3"
		},
		{
			"bufferView":74,
			"componentType":5126,
			"count":58038,
			"type":"VEC3"
		},
		{
			"bufferView":75,
			"componentType":5123,
			"count":58881,
			"type":"SCALAR"
		},
		{
			"bufferView":76,
			"componentType":5126,
			"count":5575,
			"max":[
				-0.16096410155296326,
				0.1624019593000412,
				-0.01681041717529297
			],
			"min":[
				-0.21320398151874542,
				0.12505602836608887,
				-0.2686432898044586
			],
			"type":"VEC3"
		},
		{
			"bufferView":77,
			"componentType":5126,
			"count":5575,
			"type":"VEC3"
		},
		{
			"bufferView":78,
			"componentType":5123,
			"count":19461,
			"type":"SCALAR"
		},
		{
			"bufferView":79,
			"componentType":5126,
			"count":13212,
			"max":[
				-0.17410513758659363,
				0.16327600181102753,
				-0.0011082105338573456
			],
			"min":[
				-0.2194039672613144,
				0.12366902083158493,
				-0.039920125156641006
			],
			"type":"VEC3"
		},
		{
			"bufferView":80,
			"componentType":5126,
			"count":13212,
			"type":"VEC3"
		},
		{
			"bufferView":81,
			"componentType":5126,
			"count":53459,
			"max":[
				0.24179214239120483,
				-0.016767427325248718,
				-0.4041796624660492
			],
			"min":[
				0.12374229729175568,
				-0.0747673287987709,
				-0.4966796338558197
			],
			"type":"VEC3"
		},
		{
			"bufferView":82,
			"componentType":5126,
			"count":53459,
			"type":"VEC3"
		},
		{
			"bufferView":83,
			"componentType":5123,
			"count":54030,
			"type":"SCALAR"
		},
		{
			"bufferView":84,
			"componentType":5126,
			"count":53053,
			"max":[
				0.24181991815567017,
				-0.008374202996492386,
				-0.40117377042770386
			],
			"min":[
				0.13199910521507263,
				-0.1585792601108551,
				-0.5011605620384216
			],
			"type":"VEC3"
		},
		{
			"bufferView":85,
			"componentType":5126,
			"count":53053,
			"type":"VEC3"
		},
		{
			"bufferView":86,
			"componentType":5123,
			"count":91455,
			"type":"SCALAR"
		},
		{
			"bufferView":87,
			"componentType":5126,
			"count":18171,
			"max":[
				0.04992055892944336,
				0.050210148096084595,
				0.19941215217113495
			],
			"min":[
				-0.04257933795452118,
				-0.014256805181503296,
				-0.07681384682655334
			],
			"type":"VEC3"
		},
		{
			"bufferView":88,
			"componentType":5126,
			"count":18171,
			"type":"VEC3"
		},
		{
			"bufferView":89,
			"componentType":5123,
			"count":55065,
			"type":"SCALAR"
		},
		{
			"bufferView":90,
			"componentType":5126,
			"count":24,
			"max":[
				0.11953126639127731,
				0.17099438607692719,
				-0.6135949492454529
			],
			"min":[
				-0.09897349029779434,
				0.15888972580432892,
				-0.6372634768486023
			],
			"type":"VEC3"
		},
		{
			"bufferView":91,
			"componentType":5126,
			"count":24,
			"type":"VEC3"
		},
		{
			"bufferView":92,
			"componentType":5126,
			"count":24,
			"type":"VEC2"
		},
		{
			"bufferView":93,
			"componentType":5126,
			"count":24,
			"max":[
				0.0069984677247703075,
				0.24065323173999786,
				-0.07093788683414459
			],
			"min":[
				-0.005849584471434355,
				0.23691748082637787,
				-0.08915159106254578
			],
			"type":"VEC3"
		},
		{
			"bufferView":94,
			"componentType":5126,
			"count":24,
			"type":"VEC3"
		},
		{
			"bufferView":95,
			"componentType":5126,
			"count":24,
			"type":"VEC2"
		},
		{
			"bufferView":96,
			"componentType":5126,
			"count":120,
			"max":[
				5
			],
			"min":[
				0.041666666666666664
			],
			"type":"SCALAR"
		},
		{
			"bufferView":97,
			"componentType":5126,
			"count":120,
			"type":"VEC3"
		},
		{
			"bufferView":98,
			"componentType":5126,
			"count":2,
			"max":[
				5
			],
			"min":[
				0.041666666666666664
			],
			"type":"SCALAR"
		},
		{
			"bufferView":99,
			"componentType":5126,
			"count":2,
			"type":"VEC4"
		},
		{
			"bufferView":100,
			"componentType":5126,
			"count":2,
			"type":"VEC3"
		},
		{
			"bufferView":101,
			"componentType":5126,
			"count":120,
			"type":"VEC3"
		},
		{
			"bufferView":102,
			"componentType":5126,
			"count":120,
			"type":"VEC3"
		},
		{
			"bufferView":103,
			"componentType":5126,
			"count":120,
			"type":"VEC4"
		},
		{
			"bufferView":104,
			"componentType":5126,
			"count":120,
			"type":"VEC3"
		},
		{
			"bufferView":105,
			"componentType":5126,
			"count":120,
			"type":"VEC4"
		},
		{
			"bufferView":106,
			"componentType":5126,
			"count":120,
			"type":"VEC3"
		},
		{
			"bufferView":107,
			"componentType":5126,
			"count":120,
			"type":"VEC4"
		},
		{
			"bufferView":108,
			"componentType":5126,
			"count":120,
			"type":"VEC3"
		},
		{
			"bufferView":109,
			"componentType":5126,
			"count":120,
			"type":"VEC4"
		},
		{
			"bufferView":110,
			"componentType":5126,
			"count":120,
			"type":"VEC3"
		},
		{
			"bufferView":111,
			"componentType":5126,
			"count":120,
			"type":"VEC3"
		},
		{
			"bufferView":112,
			"componentType":5126,
			"count":2,
			"type":"VEC4"
		},
		{
			"bufferView":113,
			"componentType":5126,
			"count":120,
			"type":"VEC3"
		},
		{
			"bufferView":114,
			"componentType":5126,
			"count":120,
			"type":"VEC4"
		},
		{
			"bufferView":115,
			"componentType":5126,
			"count":2,
			"type":"VEC3"
		},
		{
			"bufferView":116,
			"componentType":5126,
			"count":120,
			"type":"VEC3"
		},
		{
			"bufferView":117,
			"componentType":5126,
			"count":2,
			"type":"VEC4"
		},
		{
			"bufferView":118,
			"componentType":5126,
			"count":120,
			"type":"VEC3"
		},
		{
			"bufferView":119,
			"componentType":5126,
			"count":120,
			"type":"VEC4"
		},
		{
			"bufferView":120,
			"componentType":5126,
			"count":120,
			"type":"VEC3"
		},
		{
			"bufferView":121,
			"componentType":5126,
			"count":120,
			"type":"VEC4"
		},
		{
			"bufferView":122,
			"componentType":5126,
			"count":120,
			"type":"VEC3"
		},
		{
			"bufferView":123,
			"componentType":5126,
			"count":120,
			"type":"VEC3"
		},
		{
			"bufferView":124,
			"componentType":5126,
			"count":120,
			"type":"VEC4"
		},
		{
			"bufferView":125,
			"componentType":5126,
			"count":120,
			"type":"VEC3"
		},
		{
			"bufferView":126,
			"componentType":5126,
			"count":2,
			"type":"VEC4"
		},
		{
			"bufferView":127,
			"componentType":5126,
			"count":2,
			"type":"VEC3"
		}
	],
	"bufferViews":[
		{
			"buffer":0,
			"byteLength":288,
			"byteOffset":0,
			"target":34962
		},
		{
			"buffer":0,
			"byteLength":288,
			"byteOffset":288,
			"target":34962
		},
		{
			"buffer":0,
			"byteLength":192,
			"byteOffset":576,
			"target":34962
		},
		{
			"buffer":0,
			"byteLength":72,
			"byteOffset":768,
			"target":34963
		},
		{
			"buffer":0,
			"byteLength":4685004,
			"byteOffset":840,
			"target":34962
		},
		{
			"buffer":0,
			"byteLength":4685004,
			"byteOffset":4685844,
			"target":34962
		},
		{
			"buffer":0,
			"byteLength":3123336,
			"byteOffset":9370848,
			"target":34962
		},
		{
			"buffer":0,
			"byteLength":2176356,
			"byteOffset":12494184,
			"target":34963
		},
		{
			"buffer":0,
			"byteLength":5902632,
			"byteOffset":14670540,
			"target":34962
		},
		{
			"buffer":0,
			"byteLength":5902632,
			"byteOffset":20573172,
			"target":34962
		},
		{
			"buffer":0,
			"byteLength":3935088,
			"byteOffset":26475804,
			"target":34962
		},
		{
			"buffer":0,
			"byteLength":1973424,
			"byteOffset":30410892,
			"target":34963
		},
		{
			"buffer":0,
			"byteLength":3734772,
			"byteOffset":32384316,
			"target":34962
		},
		{
			"buffer":0,
			"byteLength":3734772,
			"byteOffset":36119088,
			"target":34962
		},
		{
			"buffer":0,
			"byteLength":2489848,
			"byteOffset":39853860,
			"target":34962
		},
		{
			"buffer":0,
			"byteLength":2057016,
			"byteOffset":42343708,
			"target":34963
		},
		{
			"buffer":0,
			"byteLength":1337580,
			"byteOffset":44400724,
			"target":34962
		},
		{
			"buffer":0,
			"byteLength":1337580,
			"byteOffset":45738304,
			"target":34962
		},
		{
			"buffer":0,
			"byteLength":891720,
			"byteOffset":47075884,
			"target":34962
		},
		{
			"buffer":0,
			"byteLength":446916,
			"byteOffset":47967604,
			"target":34963
		},
		{
			"buffer":0,
			"byteLength":288,
			"byteOffset":48414520,
			"target":34962
		},
		{
			"buffer":0,
			"byteLength":288,
			"byteOffset":48414808,
			"target":34962
		},
		{
			"buffer":0,
			"byteLength":192,
			"byteOffset":48415096,
			"target":34962
		},
		{
			"buffer":0,
			"byteLength":2125260,
			"byteOffset":48415288,
			"target":34962
		},
		{
			"buffer":0,
			"byteLength":2125260,
			"byteOffset":50540548,
			"target":34962
		},
		{
			"buffer":0,
			"byteLength":1416840,
			"byteOffset":52665808,
			"target":34962
		},
		{
			"buffer":0,
			"byteLength":713076,
			"byteOffset":54082648,
			"target":34963
		},
		{
			"buffer":0,
			"byteLength":5825364,
			"byteOffset":54795724,
			"target":34962
		},
		{
			"buffer":0,
			"byteLength":5825364,
			"byteOffset":60621088,
			"target":34962
		},
		{
			"buffer":0,
			"byteLength":1973424,
			"byteOffset":66446452,
			"target":34963
		},
		{
			"buffer":0,
			"byteLength":67008,
			"byteOffset":68419876,
			"target":34962
		},
		{
			"buffer":0,
			"byteLength":67008,
			"byteOffset":68486884,
			"target":34962
		},
		{
			"buffer":0,
			"byteLength":38922,
			"byteOffset":68553892,
			"target":34963
		},
		{
			"buffer":0,
			"byteLength":158544,
			"byteOffset":68592816,
			"target":34962
		},
		{
			"buffer":0,
			"byteLength":158544,
			"byteOffset":68751360,
			"target":34962
		},
		{
			"buffer":0,
			"byteLength":26424,
			"byteOffset":68909904,
			"target":34963
		},
		{
			"buffer":0,
			"byteLength":218268,
			"byteOffset":68936328,
			"target":34962
		},
		{
			"buffer":0,
			"byteLength":218268,
			"byteOffset":69154596,
			"target":34962
		},
		{
			"buffer":0,
			"byteLength":110160,
			"byteOffset":69372864,
			"target":34963
		},
		{
			"buffer":0,
			"byteLength":636144,
			"byteOffset":69483024,
			"target":34962
		},
		{
			"buffer":0,
			"byteLength":636144,
			"byteOffset":70119168,
			"target":34962
		},
		{
			"buffer":0,
			"byteLength":182910,
			"byteOffset":70755312,
			"target":34963
		},
		{
			"buffer":0,
			"byteLength":641556,
			"byteOffset":70938224,
			"target":34962
		},
		{
			"buffer":0,
			"byteLength":641556,
			"byteOffset":71579780,
			"target":34962
		},
		{
			"buffer":0,
			"byteLength":108060,
			"byteOffset":72221336,
			"target":34963
		},
		{
			"buffer":0,
			"byteLength":66936,
			"byteOffset":72329396,
			"target":34962
		},
		{
			"buffer":0,
			"byteLength":66936,
			"byteOffset":72396332,
			"target":34962
		},
		{
			"buffer":0,
			"byteLength":38922,
			"byteOffset":72463268,
			"target":34963
		},
		{
			"buffer":0,
			"byteLength":158544,
			"byteOffset":72502192,
			"target":34962
		},
		{
			"buffer":0,
			"byteLength":158544,
			"byteOffset":72660736,
			"target":34962
		},
		{
			"buffer":0,
			"byteLength":218172,
			"byteOffset":72819280,
			"target":34962
		},
		{
			"buffer":0,
			"byteLength":218172,
			"byteOffset":73037452,
			"target":34962
		},
		{
			"buffer":0,
			"byteLength":110130,
			"byteOffset":73255624,
			"target":34963
		},
		{
			"buffer":0,
			"byteLength":636696,
			"byteOffset":73365756,
			"target":34962
		},
		{
			"buffer":0,
			"byteLength":636696,
			"byteOffset":74002452,
			"target":34962
		},
		{
			"buffer":0,
			"byteLength":182910,
			"byteOffset":74639148,
			"target":34963
		},
		{
			"buffer":0,
			"byteLength":641580,
			"byteOffset":74822060,
			"target":34962
		},
		{
			"buffer":0,
			"byteLength":641580,
			"byteOffset":75463640,
			"target":34962
		},
		{
			"buffer":0,
			"byteLength":108060,
			"byteOffset":76105220,
			"target":34963
		},
		{
			"buffer":0,
			"byteLength":67032,
			"byteOffset":76213280,
			"target":34962
		},
		{
			"buffer":0,
			"byteLength":67032,
			"byteOffset":76280312,
			"target":34962
		},
		{
			"buffer":0,
			"byteLength":38922,
			"byteOffset":76347344,
			"target":34963
		},
		{
			"buffer":0,
			"byteLength":158544,
			"byteOffset":76386268,
			"target":34962
		},
		{
			"buffer":0,
			"byteLength":158544,
			"byteOffset":76544812,
			"target":34962
		},
		{
			"buffer":0,
			"byteLength":641484,
			"byteOffset":76703356,
			"target":34962
		},
		{
			"buffer":0,
			"byteLength":641484,
			"byteOffset":77344840,
			"target":34962
		},
		{
			"buffer":0,
			"byteLength":108060,
			"byteOffset":77986324,
			"target":34963
		},
		{
			"buffer":0,
			"byteLength":636516,
			"byteOffset":78094384,
			"target":34962
		},
		{
			"buffer":0,
			"byteLength":636516,
			"byteOffset":78730900,
			"target":34962
		},
		{
			"buffer":0,
			"byteLength":182910,
			"byteOffset":79367416,
			"target":34963
		},
		{
			"buffer":0,
			"byteLength":218436,
			"byteOffset":79550328,
			"target":34962
		},
		{
			"buffer":0,
			"byteLength":218436,
			"byteOffset":79768764,
			"target":34962
		},
		{
			"buffer":0,
			"byteLength":132660,
			"byteOffset":79987200,
			"target":34963
		},
		{
			"buffer":0,
			"byteLength":696456,
			"byteOffset":80119860,
			"target":34962
		},
		{
			"buffer":0,
			"byteLength":696456,
			"byteOffset":80816316,
			"target":34962
		},
		{
			"buffer":0,
			"byteLength":117762,
			"byteOffset":81512772,
			"target":34963
		},
		{
			"buffer":0,
			"byteLength":66900,
			"byteOffset":81630536,
			"target":34962
		},
		{
			"buffer":0,
			"byteLength":66900,
			"byteOffset":81697436,
			"target":34962
		},
		{
			"buffer":0,
			"byteLength":38922,
			"byteOffset":81764336,
			"target":34963
		},
		{
			"buffer":0,
			"byteLength":158544,
			"byteOffset":81803260,
			"target":34962
		},
		{
			"buffer":0,
			"byteLength":158544,
			"byteOffset":81961804,
			"target":34962
		},
		{
			"buffer":0,
			"byteLength":641508,
			"byteOffset":82120348,
			"target":34962
		},
		{
			"buffer":0,
			"byteLength":641508,
			"byteOffset":82761856,
			"target":34962
		},
		{
			"buffer":0,
			"byteLength":108060,
			"byteOffset":83403364,
			"target":34963
		},
		{
			"buffer":0,
			"byteLength":636636,
			"byteOffset":83511424,
			"target":34962
		},
		{
			"buffer":0,
			"byteLength":636636,
			"byteOffset":84148060,
			"target":34962
		},
		{
			"buffer":0,
			"byteLength":182910,
			"byteOffset":84784696,
			"target":34963
		},
		{
			"buffer":0,
			"byteLength":218052,
			"byteOffset":84967608,
			"target":34962
		},
		{
			"buffer":0,
			"byteLength":218052,
			"byteOffset":85185660,
			"target":34962
		},
		{
			"buffer":0,
			"byteLength":110130,
			"byteOffset":85403712,
			"target":34963
		},
		{
			"buffer":0,
			"byteLength":288,
			"byteOffset":85513844,
			"target":34962
		},
		{
			"buffer":0,
			"byteLength":288,
			"byteOffset":85514132,
			"target":34962
		},
		{
			"buffer":0,
			"byteLength":192,
			"byteOffset":85514420,
			"target":34962
		},
		{
			"buffer":0,
			"byteLength":288,
			"byteOffset":85514612,
			"target":34962
		},
		{
			"buffer":0,
			"byteLength":288,
			"byteOffset":85514900,
			"target":34962
		},
		{
			"buffer":0,
			"byteLength":192,
			"byteOffset":85515188,
			"target":34962
		},
		{
			"buffer":0,
			"byteLength":480,
			"byteOffset":85515380
		},
		{
			"buffer":0,
			"byteLength":1440,
			"byteOffset":85515860
		},
		{
			"buffer":0,
			"byteLength":8,
			"byteOffset":85517300
		},
		{
			"buffer":0,
			"byteLength":32,
			"byteOffset":85517308
		},
		{
			"buffer":0,
			"byteLength":24,
			"byteOffset":85517340
		},
		{
			"buffer":0,
			"byteLength":1440,
			"byteOffset":85517364
		},
		{
			"buffer":0,
			"byteLength":1440,
			"byteOffset":85518804
		},
		{
			"buffer":0,
			"byteLength":1920,
			"byteOffset":85520244
		},
		{
			"buffer":0,
			"byteLength":1440,
			"byteOffset":85522164
		},
		{
			"buffer":0,
			"byteLength":1920,
			"byteOffset":85523604
		},
		{
			"buffer":0,
			"byteLength":1440,
			"byteOffset":85525524
		},
		{
			"buffer":0,
			"byteLength":1920,
			"byteOffset":85526964
		},
		{
			"buffer":0,
			"byteLength":1440,
			"byteOffset":85528884
		},
		{
			"buffer":0,
			"byteLength":1920,
			"byteOffset":85530324
		},
		{
			"buffer":0,
			"byteLength":1440,
			"byteOffset":85532244
		},
		{
			"buffer":0,
			"byteLength":1440,
			"byteOffset":85533684
		},
		{
			"buffer":0,
			"byteLength":32,
			"byteOffset":85535124
		},
		{
			"buffer":0,
			"byteLength":1440,
			"byteOffset":85535156
		},
		{
			"buffer":0,
			"byteLength":1920,
			"byteOffset":85536596
		},
		{
			"buffer":0,
			"byteLength":24,
			"byteOffset":85538516
		},
		{
			"buffer":0,
			"byteLength":1440,
			"byteOffset":85538540
		},
		{
			"buffer":0,
			"byteLength":32,
			"byteOffset":85539980
		},
		{
			"buffer":0,
			"byteLength":1440,
			"byteOffset":85540012
		},
		{
			"buffer":0,
			"byteLength":1920,
			"byteOffset":85541452
		},
		{
			"buffer":0,
			"byteLength":1440,
			"byteOffset":85543372
		},
		{
			"buffer":0,
			"byteLength":1920,
			"byteOffset":85544812
		},
		{
			"buffer":0,
			"byteLength":1440,
			"byteOffset":85546732
		},
		{
			"buffer":0,
			"byteLength":1440,
			"byteOffset":85548172
		},
		{
			"buffer":0,
			"byteLength":1920,
			"byteOffset":85549612
		},
		{
			"buffer":0,
			"byteLength":1440,
			"byteOffset":85551532
		},
		{
			"buffer":0,
			"byteLength":32,
			"byteOffset":85552972
		},
		{
			"buffer":0,
			"byteLength":24,
			"byteOffset":85553004
		}
	],
	"buffers":[
		{
			"byteLength":85553028,
			"uri":"Go2_Animated.bin"
		}
	]
}
