{
	"asset":{
		"generator":"Khronos glTF Blender I/O v4.5.48",
		"version":"2.0"
	},
	"scene":0,
	"scenes":[
		{
			"name":"Scene",
			"nodes":[
				0,
				1,
				2,
				3,
				4,
				5,
				6,
				7,
				8,
				9,
				10,
				11,
				12,
				13,
				14,
				15
			]
		}
	],
	"nodes":[
		{
			"mesh":0,
			"name":"Body.001",
			"rotation":[
				0.5000000596046448,
				-0.5,
				0.4999999403953552,
				0.5
			]
		},
		{
			"mesh":1,
			"name":"Logos.001",
			"rotation":[
				0.5000000596046448,
				-0.5,
				0.4999999403953552,
				0.5
			]
		},
		{
			"mesh":2,
			"name":"CalfFrontLeft.001",
			"rotation":[
				0.5,
				-0.5,
				0.5,
				0.5
			],
			"translation":[
				0.14121609926223755,
				0.1046690121293068,
				0.19921277463436127
			]
		},
		{
			"mesh":3,
			"name":"LegFrontLeft.001",
			"rotation":[
				0.5,
				-0.5,
				0.5,
				0.5
			],
			"translation":[
				0.1098489984869957,
				0.41999998688697815,
				0.1899999976158142
			]
		},
		{
			"mesh":4,
			"name":"LeftFrontMotor.001",
			"rotation":[
				0.5,
				-0.5,
				0.5,
				0.5
			]
		},
		{
			"mesh":5,
			"name":"CalfFrontRight.001",
			"rotation":[
				0.5000001192092896,
				-0.5,
				0.5,
				0.5000000596046448
			]
		},
		{
			"mesh":6,
			"name":"LegRightFront.001",
			"rotation":[
				0.5,
				-0.5,
				0.5,
				0.5
			],
			"translation":[
				-0.1098489984869957,
				0.41999998688697815,
				0.1899999976158142
			]
		},
		{
			"mesh":7,
			"name":"RightFrontMotor.001",
			"rotation":[
				0.4973260760307312,
				-0.5026598572731018,
				0.49732595682144165,
				0.502659797668457
			]
		},
		{
			"mesh":8,
			"name":"CalfBackLeft.001",
			"rotation":[
				0.5000000596046448,
				-0.5,
				0.4999999403953552,
				0.5
			],
			"translation":[
				0,
				0.0008838580688461661,
				0
			]
		},
		{
			"mesh":9,
			"name":"LeftMotor.001",
			"rotation":[
				-0.3467458486557007,
				0.34855860471725464,
				0.6152293086051941,
				0.6162525415420532
			],
			"translation":[
				0,
				-0.030198488384485245,
				-0.2534331679344177
			]
		},
		{
			"mesh":10,
			"name":"LegBackLeft.001",
			"rotation":[
				0.5000000596046448,
				-0.5,
				0.4999999403953552,
				0.5
			],
			"translation":[
				0.10786169767379761,
				0.4227088391780853,
				-0.19689901173114777
			]
		},
		{
			"mesh":11,
			"name":"HeadSensor.001",
			"rotation":[
				0.5000000596046448,
				-0.5,
				0.4999999403953552,
				0.5
			]
		},
		{
			"mesh":12,
			"name":"CalfBackRight.001",
			"rotation":[
				0.49973347783088684,
				-0.49973341822624207,
				0.5002664923667908,
				0.5002664923667908
			],
			"translation":[
				0,
				0.0007365484489127994,
				0
			]
		},
		{
			"mesh":13,
			"name":"RightMotor.001",
			"rotation":[
				0.4999538064002991,
				0.49999988079071045,
				-0.5,
				0.5000463128089905
			]
		},
		{
			"mesh":14,
			"name":"LegBackRight.001",
			"rotation":[
				0.5001237988471985,
				-0.5001237392425537,
				0.4998761713504791,
				0.4998762607574463
			],
			"translation":[
				-0.10786078125238419,
				0.42124518752098083,
				-0.19683359563350677
			]
		},
		{
			"mesh":15,
			"name":"BateryPark.001",
			"rotation":[
				0.4868810474872589,
				0.5118748545646667,
				-0.489613801240921,
				0.5110864639282227
			],
			"scale":[
				0.48467522859573364,
				0.6999976634979248,
				0.6999994516372681
			]
		}
	],
	"animations":[
		{
			"channels":[
				{
					"sampler":0,
					"target":{
						"node":0,
						"path":"translation"
					}
				},
				{
					"sampler":1,
					"target":{
						"node":1,
						"path":"translation"
					}
				},
				{
					"sampler":2,
					"target":{
						"node":2,
						"path":"translation"
					}
				},
				{
					"sampler":3,
					"target":{
						"node":2,
						"path":"rotation"
					}
				},
				{
					"sampler":4,
					"target":{
						"node":3,
						"path":"translation"
					}
				},
				{
					"sampler":5,
					"target":{
						"node":3,
						"path":"rotation"
					}
				},
				{
					"sampler":6,
					"target":{
						"node":4,
						"path":"translation"
					}
				},
				{
					"sampler":7,
					"target":{
						"node":4,
						"path":"rotation"
					}
				},
				{
					"sampler":8,
					"target":{
						"node":5,
						"path":"translation"
					}
				},
				{
					"sampler":9,
					"target":{
						"node":5,
						"path":"rotation"
					}
				},
				{
					"sampler":10,
					"target":{
						"node":6,
						"path":"translation"
					}
				},
				{
					"sampler":11,
					"target":{
						"node":6,
						"path":"rotation"
					}
				},
				{
					"sampler":12,
					"target":{
						"node":7,
						"path":"translation"
					}
				},
				{
					"sampler":13,
					"target":{
						"node":8,
						"path":"translation"
					}
				},
				{
					"sampler":14,
					"target":{
						"node":8,
						"path":"rotation"
					}
				},
				{
					"sampler":15,
					"target":{
						"node":9,
						"path":"translation"
					}
				},
				{
					"sampler":16,
					"target":{
						"node":10,
						"path":"translation"
					}
				},
				{
					"sampler":17,
					"target":{
						"node":10,
						"path":"rotation"
					}
				},
				{
					"sampler":18,
					"target":{
						"node":11,
						"path":"translation"
					}
				},
				{
					"sampler":19,
					"target":{
						"node":12,
						"path":"translation"
					}
				},
				{
					"sampler":20,
					"target":{
						"node":12,
						"path":"rotation"
					}
				},
				{
					"sampler":21,
					"target":{
						"node":13,
						"path":"translation"
					}
				},
				{
					"sampler":22,
					"target":{
						"node":14,
						"path":"translation"
					}
				},
				{
					"sampler":23,
					"target":{
						"node":14,
						"path":"rotation"
					}
				},
				{
					"sampler":24,
					"target":{
						"node":15,
						"path":"translation"
					}
				}
			],
			"name":"Animation",
			"samplers":[
				{
					"input":71,
					"interpolation":"LINEAR",
					"output":72
				},
				{
					"input":71,
					"interpolation":"LINEAR",
					"output":73
				},
				{
					"input":71,
					"interpolation":"LINEAR",
					"output":74
				},
				{
					"input":71,
					"interpolation":"LINEAR",
					"output":75
				},
				{
					"input":71,
					"interpolation":"LINEAR",
					"output":76
				},
				{
					"input":71,
					"interpolation":"LINEAR",
					"output":77
				},
				{
					"input":71,
					"interpolation":"LINEAR",
					"output":78
				},
				{
					"input":71,
					"interpolation":"LINEAR",
					"output":79
				},
				{
					"input":71,
					"interpolation":"LINEAR",
					"output":80
				},
				{
					"input":71,
					"interpolation":"LINEAR",
					"output":81
				},
				{
					"input":71,
					"interpolation":"LINEAR",
					"output":82
				},
				{
					"input":71,
					"interpolation":"LINEAR",
					"output":77
				},
				{
					"input":71,
					"interpolation":"LINEAR",
					"output":83
				},
				{
					"input":71,
					"interpolation":"LINEAR",
					"output":84
				},
				{
					"input":71,
					"interpolation":"LINEAR",
					"output":85
				},
				{
					"input":71,
					"interpolation":"LINEAR",
					"output":86
				},
				{
					"input":71,
					"interpolation":"LINEAR",
					"output":87
				},
				{
					"input":71,
					"interpolation":"LINEAR",
					"output":88
				},
				{
					"input":71,
					"interpolation":"LINEAR",
					"output":73
				},
				{
					"input":71,
					"interpolation":"LINEAR",
					"output":89
				},
				{
					"input":71,
					"interpolation":"LINEAR",
					"output":90
				},
				{
					"input":71,
					"interpolation":"LINEAR",
					"output":91
				},
				{
					"input":71,
					"interpolation":"LINEAR",
					"output":92
				},
				{
					"input":71,
					"interpolation":"LINEAR",
					"output":93
				},
				{
					"input":71,
					"interpolation":"LINEAR",
					"output":94
				}
			]
		}
	],
	"materials":[
		{
			"doubleSided":true,
			"name":"material_4C4C4C",
			"pbrMetallicRoughness":{
				"baseColorFactor":[
					0.6866804957389832,
					0.7083764672279358,
					0.7230554223060608,
					1
				],
				"metallicFactor":0
			}
		},
		{
			"doubleSided":true,
			"name":"material_100100100",
			"pbrMetallicRoughness":{
				"metallicFactor":0
			}
		},
		{
			"doubleSided":true,
			"name":"material_737373",
			"pbrMetallicRoughness":{
				"baseColorFactor":[
					0.5647076964378357,
					0.5840790867805481,
					0.5972022414207458,
					1
				],
				"metallicFactor":0.4617156982421875,
				"roughnessFactor":0.6689544320106506
			}
		},
		{
			"doubleSided":true,
			"name":"material_CCC",
			"pbrMetallicRoughness":{
				"baseColorFactor":[
					0.01773197017610073,
					0.01692909561097622,
					0.01692909561097622,
					1
				],
				"metallicFactor":0,
				"roughnessFactor":0.8944789171218872
			}
		},
		{
			"doubleSided":true,
			"name":"material_CCC.001",
			"pbrMetallicRoughness":{
				"baseColorFactor":[
					0.01773197017610073,
					0.01692909561097622,
					0.01692909561097622,
					1
				],
				"metallicFactor":0,
				"roughnessFactor":0.8944789171218872
			}
		},
		{
			"doubleSided":true,
			"name":"material_CCC.002",
			"pbrMetallicRoughness":{
				"baseColorFactor":[
					0.01773197017610073,
					0.01692909561097622,
					0.01692909561097622,
					1
				],
				"metallicFactor":0,
				"roughnessFactor":0.8944789171218872
			}
		},
		{
			"doubleSided":true,
			"name":"material_CCC.003",
			"pbrMetallicRoughness":{
				"baseColorFactor":[
					0.01773197017610073,
					0.01692909561097622,
					0.01692909561097622,
					1
				],
				"metallicFactor":0,
				"roughnessFactor":0.8944789171218872
			}
		}
	],
	"meshes":[
		{
			"name":"Object_0.001",
			"primitives":[
				{
					"attributes":{
						"POSITION":0,
						"NORMAL":1,
						"TEXCOORD_0":2
					},
					"indices":3,
					"material":0
				}
			]
		},
		{
			"name":"Object_11.001",
			"primitives":[
				{
					"attributes":{
						"POSITION":4,
						"NORMAL":5
					},
					"indices":6,
					"material":1
				}
			]
		},
		{
			"name":"Object_12.001",
			"primitives":[
				{
					"attributes":{
						"POSITION":7,
						"NORMAL":8
					},
					"indices":9,
					"material":2
				},
				{
					"attributes":{
						"POSITION":10,
						"NORMAL":11
					},
					"indices":12,
					"material":3
				}
			]
		},
		{
			"name":"Object_16.001",
			"primitives":[
				{
					"attributes":{
						"POSITION":13,
						"NORMAL":14
					},
					"indices":15,
					"material":2
				}
			]
		},
		{
			"name":"Object_17.001",
			"primitives":[
				{
					"attributes":{
						"POSITION":16,
						"NORMAL":17
					},
					"indices":18,
					"material":0
				},
				{
					"attributes":{
						"POSITION":19,
						"NORMAL":20
					},
					"indices":21,
					"material":2
				}
			]
		},
		{
			"name":"Object_18.001",
			"primitives":[
				{
					"attributes":{
						"POSITION":22,
						"NORMAL":23
					},
					"indices":24,
					"material":2
				},
				{
					"attributes":{
						"POSITION":25,
						"NORMAL":26
					},
					"indices":12,
					"material":4
				}
			]
		},
		{
			"name":"Object_22.001",
			"primitives":[
				{
					"attributes":{
						"POSITION":27,
						"NORMAL":28
					},
					"indices":29,
					"material":2
				}
			]
		},
		{
			"name":"Object_23.001",
			"primitives":[
				{
					"attributes":{
						"POSITION":30,
						"NORMAL":31
					},
					"indices":32,
					"material":0
				},
				{
					"attributes":{
						"POSITION":33,
						"NORMAL":34
					},
					"indices":35,
					"material":2
				}
			]
		},
		{
			"name":"Object_24.001",
			"primitives":[
				{
					"attributes":{
						"POSITION":36,
						"NORMAL":37
					},
					"indices":38,
					"material":2
				},
				{
					"attributes":{
						"POSITION":39,
						"NORMAL":40
					},
					"indices":12,
					"material":5
				}
			]
		},
		{
			"name":"Object_26.001",
			"primitives":[
				{
					"attributes":{
						"POSITION":41,
						"NORMAL":42
					},
					"indices":43,
					"material":2
				},
				{
					"attributes":{
						"POSITION":44,
						"NORMAL":45
					},
					"indices":46,
					"material":0
				}
			]
		},
		{
			"name":"Object_28.001",
			"primitives":[
				{
					"attributes":{
						"POSITION":47,
						"NORMAL":48
					},
					"indices":49,
					"material":2
				}
			]
		},
		{
			"name":"Object_3.001",
			"primitives":[
				{
					"attributes":{
						"POSITION":50,
						"NORMAL":51
					},
					"indices":52,
					"material":3
				}
			]
		},
		{
			"name":"Object_30.001",
			"primitives":[
				{
					"attributes":{
						"POSITION":53,
						"NORMAL":54
					},
					"indices":55,
					"material":2
				},
				{
					"attributes":{
						"POSITION":56,
						"NORMAL":57
					},
					"indices":12,
					"material":6
				}
			]
		},
		{
			"name":"Object_32.001",
			"primitives":[
				{
					"attributes":{
						"POSITION":58,
						"NORMAL":59
					},
					"indices":60,
					"material":2
				},
				{
					"attributes":{
						"POSITION":61,
						"NORMAL":62
					},
					"indices":63,
					"material":0
				}
			]
		},
		{
			"name":"Object_34.001",
			"primitives":[
				{
					"attributes":{
						"POSITION":64,
						"NORMAL":65
					},
					"indices":66,
					"material":2
				}
			]
		},
		{
			"name":"Cube.003",
			"primitives":[
				{
					"attributes":{
						"POSITION":67,
						"NORMAL":68,
						"TEXCOORD_0":69
					},
					"indices":70,
					"material":3
				}
			]
		}
	],
	"accessors":[
		{
			"bufferView":0,
			"componentType":5126,
			"count":177105,
			"max":[
				0.33195793628692627,
				0.09722297638654709,
				-0.35384100675582886
			],
			"min":[
				-0.1279979646205902,
				-0.09677696973085403,
				-0.5388339757919312
			],
			"type":"VEC3"
		},
		{
			"bufferView":1,
			"componentType":5126,
			"count":177105,
			"type":"VEC3"
		},
		{
			"bufferView":2,
			"componentType":5126,
			"count":177105,
			"type":"VEC2"
		},
		{
			"bufferView":3,
			"componentType":5125,
			"count":178269,
			"type":"SCALAR"
		},
		{
			"bufferView":4,
			"componentType":5126,
			"count":485447,
			"max":[
				0.3272639513015747,
				0.09672683477401733,
				-0.46649858355522156
			],
			"min":[
				-0.09323566406965256,
				-0.09706424176692963,
				-0.5045362710952759
			],
			"type":"VEC3"
		},
		{
			"bufferView":5,
			"componentType":5126,
			"count":485447,
			"type":"VEC3"
		},
		{
			"bufferView":6,
			"componentType":5125,
			"count":493356,
			"type":"SCALAR"
		},
		{
			"bufferView":7,
			"componentType":5126,
			"count":5584,
			"max":[
				0.025739282369613647,
				0.01786002516746521,
				0.08785855770111084
			],
			"min":[
				-0.026500612497329712,
				-0.01948590576648712,
				-0.1639743149280548
			],
			"type":"VEC3"
		},
		{
			"bufferView":8,
			"componentType":5126,
			"count":5584,
			"type":"VEC3"
		},
		{
			"bufferView":9,
			"componentType":5123,
			"count":19461,
			"type":"SCALAR"
		},
		{
			"bufferView":10,
			"componentType":5126,
			"count":13212,
			"max":[
				0.01346518099308014,
				0.01899215579032898,
				0.10302962362766266
			],
			"min":[
				-0.03184272348880768,
				-0.020614832639694214,
				0.06423863768577576
			],
			"type":"VEC3"
		},
		{
			"bufferView":11,
			"componentType":5126,
			"count":13212,
			"type":"VEC3"
		},
		{
			"bufferView":12,
			"componentType":5123,
			"count":13212,
			"type":"SCALAR"
		},
		{
			"bufferView":13,
			"componentType":5126,
			"count":18189,
			"max":[
				0.049985989928245544,
				0.014257676899433136,
				0.19948582351207733
			],
			"min":[
				-0.042513906955718994,
				-0.050209350883960724,
				-0.07674017548561096
			],
			"type":"VEC3"
		},
		{
			"bufferView":14,
			"componentType":5126,
			"count":18189,
			"type":"VEC3"
		},
		{
			"bufferView":15,
			"componentType":5123,
			"count":55080,
			"type":"SCALAR"
		},
		{
			"bufferView":16,
			"componentType":5126,
			"count":53012,
			"max":[
				0.24186395108699799,
				-0.00841599702835083,
				-0.4011624753475189
			],
			"min":[
				0.1320839822292328,
				-0.1586209386587143,
				-0.5011314153671265
			],
			"type":"VEC3"
		},
		{
			"bufferView":17,
			"componentType":5126,
			"count":53012,
			"type":"VEC3"
		},
		{
			"bufferView":18,
			"componentType":5123,
			"count":91455,
			"type":"SCALAR"
		},
		{
			"bufferView":19,
			"componentType":5126,
			"count":53463,
			"max":[
				0.24183382093906403,
				-0.01680898666381836,
				-0.40415748953819275
			],
			"min":[
				0.12378397583961487,
				-0.07480888813734055,
				-0.49665746092796326
			],
			"type":"VEC3"
		},
		{
			"bufferView":20,
			"componentType":5126,
			"count":53463,
			"type":"VEC3"
		},
		{
			"bufferView":21,
			"componentType":5123,
			"count":54030,
			"type":"SCALAR"
		},
		{
			"bufferView":22,
			"componentType":5126,
			"count":5578,
			"max":[
				0.2258358895778656,
				0.16240203380584717,
				-0.016810491681098938
			],
			"min":[
				0.17359599471092224,
				0.12505610287189484,
				-0.2686433792114258
			],
			"type":"VEC3"
		},
		{
			"bufferView":23,
			"componentType":5126,
			"count":5578,
			"type":"VEC3"
		},
		{
			"bufferView":24,
			"componentType":5123,
			"count":19461,
			"type":"SCALAR"
		},
		{
			"bufferView":25,
			"componentType":5126,
			"count":13212,
			"max":[
				0.21267788112163544,
				0.16327603161334991,
				-0.0016394939739257097
			],
			"min":[
				0.1673699915409088,
				0.12366903573274612,
				-0.04043048247694969
			],
			"type":"VEC3"
		},
		{
			"bufferView":26,
			"componentType":5126,
			"count":13212,
			"type":"VEC3"
		},
		{
			"bufferView":27,
			"componentType":5126,
			"count":18181,
			"max":[
				0.04992055892944336,
				0.050210140645504,
				0.19941209256649017
			],
			"min":[
				-0.04257933795452118,
				-0.014256812632083893,
				-0.07681390643119812
			],
			"type":"VEC3"
		},
		{
			"bufferView":28,
			"componentType":5126,
			"count":18181,
			"type":"VEC3"
		},
		{
			"bufferView":29,
			"componentType":5123,
			"count":55065,
			"type":"SCALAR"
		},
		{
			"bufferView":30,
			"componentType":5126,
			"count":53058,
			"max":[
				0.2418639212846756,
				0.15862102806568146,
				-0.40145453810691833
			],
			"min":[
				0.1320839524269104,
				0.008415862917900085,
				-0.5011314153671265
			],
			"type":"VEC3"
		},
		{
			"bufferView":31,
			"componentType":5126,
			"count":53058,
			"type":"VEC3"
		},
		{
			"bufferView":32,
			"componentType":5123,
			"count":91455,
			"type":"SCALAR"
		},
		{
			"bufferView":33,
			"componentType":5126,
			"count":53465,
			"max":[
				0.24183383584022522,
				0.07480894774198532,
				-0.40445005893707275
			],
			"min":[
				0.12378396838903427,
				0.01680903136730194,
				-0.49695250391960144
			],
			"type":"VEC3"
		},
		{
			"bufferView":34,
			"componentType":5126,
			"count":53465,
			"type":"VEC3"
		},
		{
			"bufferView":35,
			"componentType":5123,
			"count":54030,
			"type":"SCALAR"
		},
		{
			"bufferView":36,
			"componentType":5126,
			"count":5586,
			"max":[
				-0.16096407175064087,
				-0.12335611879825592,
				-0.016810372471809387
			],
			"min":[
				-0.21320395171642303,
				-0.16070204973220825,
				-0.26864326000213623
			],
			"type":"VEC3"
		},
		{
			"bufferView":37,
			"componentType":5126,
			"count":5586,
			"type":"VEC3"
		},
		{
			"bufferView":38,
			"componentType":5123,
			"count":19461,
			"type":"SCALAR"
		},
		{
			"bufferView":39,
			"componentType":5126,
			"count":13212,
			"max":[
				-0.17412200570106506,
				-0.12222399562597275,
				-0.0007555602351203561
			],
			"min":[
				-0.21942992508411407,
				-0.16183097660541534,
				-0.03954654932022095
			],
			"type":"VEC3"
		},
		{
			"bufferView":40,
			"componentType":5126,
			"count":13212,
			"type":"VEC3"
		},
		{
			"bufferView":41,
			"componentType":5126,
			"count":53457,
			"max":[
				0.24179203808307648,
				-0.015482380986213684,
				0.4971042275428772
			],
			"min":[
				0.12374219298362732,
				-0.07348228245973587,
				0.4046042561531067
			],
			"type":"VEC3"
		},
		{
			"bufferView":42,
			"componentType":5126,
			"count":53457,
			"type":"VEC3"
		},
		{
			"bufferView":43,
			"componentType":5123,
			"count":54030,
			"type":"SCALAR"
		},
		{
			"bufferView":44,
			"componentType":5126,
			"count":53043,
			"max":[
				0.2418203055858612,
				-0.007088914513587952,
				0.5015097260475159
			],
			"min":[
				0.13199946284294128,
				-0.15728993713855743,
				0.40159469842910767
			],
			"type":"VEC3"
		},
		{
			"bufferView":45,
			"componentType":5126,
			"count":53043,
			"type":"VEC3"
		},
		{
			"bufferView":46,
			"componentType":5123,
			"count":91455,
			"type":"SCALAR"
		},
		{
			"bufferView":47,
			"componentType":5126,
			"count":18203,
			"max":[
				0.04998597502708435,
				0.01425769180059433,
				0.1994858831167221
			],
			"min":[
				-0.04251392185688019,
				-0.05020933598279953,
				-0.07674011588096619
			],
			"type":"VEC3"
		},
		{
			"bufferView":48,
			"componentType":5126,
			"count":18203,
			"type":"VEC3"
		},
		{
			"bufferView":49,
			"componentType":5123,
			"count":66330,
			"type":"SCALAR"
		},
		{
			"bufferView":50,
			"componentType":5126,
			"count":58038,
			"max":[
				0.33020395040512085,
				0.04217497631907463,
				-0.3537154197692871
			],
			"min":[
				0.24780094623565674,
				-0.04172898456454277,
				-0.506510317325592
			],
			"type":"VEC3"
		},
		{
			"bufferView":51,
			"componentType":5126,
			"count":58038,
			"type":"VEC3"
		},
		{
			"bufferView":52,
			"componentType":5123,
			"count":58881,
			"type":"SCALAR"
		},
		{
			"bufferView":53,
			"componentType":5126,
			"count":5575,
			"max":[
				-0.16096410155296326,
				0.1624019593000412,
				-0.01681041717529297
			],
			"min":[
				-0.21320398151874542,
				0.12505602836608887,
				-0.2686432898044586
			],
			"type":"VEC3"
		},
		{
			"bufferView":54,
			"componentType":5126,
			"count":5575,
			"type":"VEC3"
		},
		{
			"bufferView":55,
			"componentType":5123,
			"count":19461,
			"type":"SCALAR"
		},
		{
			"bufferView":56,
			"componentType":5126,
			"count":13212,
			"max":[
				-0.17410513758659363,
				0.16327600181102753,
				-0.0011082105338573456
			],
			"min":[
				-0.2194039672613144,
				0.12366902083158493,
				-0.039920125156641006
			],
			"type":"VEC3"
		},
		{
			"bufferView":57,
			"componentType":5126,
			"count":13212,
			"type":"VEC3"
		},
		{
			"bufferView":58,
			"componentType":5126,
			"count":53459,
			"max":[
				0.24179214239120483,
				-0.016767427325248718,
				-0.4041796624660492
			],
			"min":[
				0.12374229729175568,
				-0.0747673287987709,
				-0.4966796338558197
			],
			"type":"VEC3"
		},
		{
			"bufferView":59,
			"componentType":5126,
			"count":53459,
			"type":"VEC3"
		},
		{
			"bufferView":60,
			"componentType":5123,
			"count":54030,
			"type":"SCALAR"
		},
		{
			"bufferView":61,
			"componentType":5126,
			"count":53053,
			"max":[
				0.24181991815567017,
				-0.008374202996492386,
				-0.40117377042770386
			],
			"min":[
				0.13199910521507263,
				-0.1585792601108551,
				-0.5011605620384216
			],
			"type":"VEC3"
		},
		{
			"bufferView":62,
			"componentType":5126,
			"count":53053,
			"type":"VEC3"
		},
		{
			"bufferView":63,
			"componentType":5123,
			"count":91455,
			"type":"SCALAR"
		},
		{
			"bufferView":64,
			"componentType":5126,
			"count":18171,
			"max":[
				0.04992055892944336,
				0.050210148096084595,
				0.19941215217113495
			],
			"min":[
				-0.04257933795452118,
				-0.014256805181503296,
				-0.07681384682655334
			],
			"type":"VEC3"
		},
		{
			"bufferView":65,
			"componentType":5126,
			"count":18171,
			"type":"VEC3"
		},
		{
			"bufferView":66,
			"componentType":5123,
			"count":55065,
			"type":"SCALAR"
		},
		{
			"bufferView":67,
			"componentType":5126,
			"count":24,
			"max":[
				0.11953126639127731,
				0.17099438607692719,
				-0.6135949492454529
			],
			"min":[
				-0.09897349029779434,
				0.15888972580432892,
				-0.6372634768486023
			],
			"type":"VEC3"
		},
		{
			"bufferView":68,
			"componentType":5126,
			"count":24,
			"type":"VEC3"
		},
		{
			"bufferView":69,
			"componentType":5126,
			"count":24,
			"type":"VEC2"
		},
		{
			"bufferView":70,
			"componentType":5123,
			"count":36,
			"type":"SCALAR"
		},
		{
			"bufferView":71,
			"componentType":5126,
			"count":120,
			"max":[
				5
			],
			"min":[
				0.041666666666666664
			],
			"type":"SCALAR"
		},
		{
			"bufferView":72,
			"componentType":5126,
			"count":120,
			"type":"VEC3"
		},
		{
			"bufferView":73,
			"componentType":5126,
			"count":120,
			"type":"VEC3"
		},
		{
			"bufferView":74,
			"componentType":5126,
			"count":120,
			"type":"VEC3"
		},
		{
			"bufferView":75,
			"componentType":5126,
			"count":120,
			"type":"VEC4"
		},
		{
			"bufferView":76,
			"componentType":5126,
			"count":120,
			"type":"VEC3"
		},
		{
			"bufferView":77,
			"componentType":5126,
			"count":120,
			"type":"VEC4"
		},
		{
			"bufferView":78,
			"componentType":5126,
			"count":120,
			"type":"VEC3"
		},
		{
			"bufferView":79,
			"componentType":5126,
			"count":120,
			"type":"VEC4"
		},
		{
			"bufferView":80,
			"componentType":5126,
			"count":120,
			"type":"VEC3"
		},
		{
			"bufferView":81,
			"componentType":5126,
			"count":120,
			"type":"VEC4"
		},
		{
			"bufferView":82,
			"componentType":5126,
			"count":120,
			"type":"VEC3"
		},
		{
			"bufferView":83,
			"componentType":5126,
			"count":120,
			"type":"VEC3"
		},
		{
			"bufferView":84,
			"componentType":5126,
			"count":120,
			"type":"VEC3"
		},
		{
			"bufferView":85,
			"componentType":5126,
			"count":120,
			"type":"VEC4"
		},
		{
			"bufferView":86,
			"componentType":5126,
			"count":120,
			"type":"VEC3"
		},
		{
			"bufferView":87,
			"componentType":5126,
			"count":120,
			"type":"VEC3"
		},
		{
			"bufferView":88,
			"componentType":5126,
			"count":120,
			"type":"VEC4"
		},
		{
			"bufferView":89,
			"componentType":5126,
			"count":120,
			"type":"VEC3"
		},
		{
			"bufferView":90,
			"componentType":5126,
			"count":120,
			"type":"VEC4"
		},
		{
			"bufferView":91,
			"componentType":5126,
			"count":120,
			"type":"VEC3"
		},
		{
			"bufferView":92,
			"componentType":5126,
			"count":120,
			"type":"VEC3"
		},
		{
			"bufferView":93,
			"componentType":5126,
			"count":120,
			"type":"VEC4"
		},
		{
			"bufferView":94,
			"componentType":5126,
			"count":120,
			"type":"VEC3"
		}
	],
	"bufferViews":[
		{
			"buffer":0,
			"byteLength":2125260,
			"byteOffset":0,
			"target":34962
		},
		{
			"buffer":0,
			"byteLength":2125260,
			"byteOffset":2125260,
			"target":34962
		},
		{
			"buffer":0,
			"byteLength":1416840,
			"byteOffset":4250520,
			"target":34962
		},
		{
			"buffer":0,
			"byteLength":713076,
			"byteOffset":5667360,
			"target":34963
		},
		{
			"buffer":0,
			"byteLength":5825364,
			"byteOffset":6380436,
			"target":34962
		},
		{
			"buffer":0,
			"byteLength":5825364,
			"byteOffset":12205800,
			"target":34962
		},
		{
			"buffer":0,
			"byteLength":1973424,
			"byteOffset":18031164,
			"target":34963
		},
		{
			"buffer":0,
			"byteLength":67008,
			"byteOffset":20004588,
			"target":34962
		},
		{
			"buffer":0,
			"byteLength":67008,
			"byteOffset":20071596,
			"target":34962
		},
		{
			"buffer":0,
			"byteLength":38922,
			"byteOffset":20138604,
			"target":34963
		},
		{
			"buffer":0,
			"byteLength":158544,
			"byteOffset":20177528,
			"target":34962
		},
		{
			"buffer":0,
			"byteLength":158544,
			"byteOffset":20336072,
			"target":34962
		},
		{
			"buffer":0,
			"byteLength":26424,
			"byteOffset":20494616,
			"target":34963
		},
		{
			"buffer":0,
			"byteLength":218268,
			"byteOffset":20521040,
			"target":34962
		},
		{
			"buffer":0,
			"byteLength":218268,
			"byteOffset":20739308,
			"target":34962
		},
		{
			"buffer":0,
			"byteLength":110160,
			"byteOffset":20957576,
			"target":34963
		},
		{
			"buffer":0,
			"byteLength":636144,
			"byteOffset":21067736,
			"target":34962
		},
		{
			"buffer":0,
			"byteLength":636144,
			"byteOffset":21703880,
			"target":34962
		},
		{
			"buffer":0,
			"byteLength":182910,
			"byteOffset":22340024,
			"target":34963
		},
		{
			"buffer":0,
			"byteLength":641556,
			"byteOffset":22522936,
			"target":34962
		},
		{
			"buffer":0,
			"byteLength":641556,
			"byteOffset":23164492,
			"target":34962
		},
		{
			"buffer":0,
			"byteLength":108060,
			"byteOffset":23806048,
			"target":34963
		},
		{
			"buffer":0,
			"byteLength":66936,
			"byteOffset":23914108,
			"target":34962
		},
		{
			"buffer":0,
			"byteLength":66936,
			"byteOffset":23981044,
			"target":34962
		},
		{
			"buffer":0,
			"byteLength":38922,
			"byteOffset":24047980,
			"target":34963
		},
		{
			"buffer":0,
			"byteLength":158544,
			"byteOffset":24086904,
			"target":34962
		},
		{
			"buffer":0,
			"byteLength":158544,
			"byteOffset":24245448,
			"target":34962
		},
		{
			"buffer":0,
			"byteLength":218172,
			"byteOffset":24403992,
			"target":34962
		},
		{
			"buffer":0,
			"byteLength":218172,
			"byteOffset":24622164,
			"target":34962
		},
		{
			"buffer":0,
			"byteLength":110130,
			"byteOffset":24840336,
			"target":34963
		},
		{
			"buffer":0,
			"byteLength":636696,
			"byteOffset":24950468,
			"target":34962
		},
		{
			"buffer":0,
			"byteLength":636696,
			"byteOffset":25587164,
			"target":34962
		},
		{
			"buffer":0,
			"byteLength":182910,
			"byteOffset":26223860,
			"target":34963
		},
		{
			"buffer":0,
			"byteLength":641580,
			"byteOffset":26406772,
			"target":34962
		},
		{
			"buffer":0,
			"byteLength":641580,
			"byteOffset":27048352,
			"target":34962
		},
		{
			"buffer":0,
			"byteLength":108060,
			"byteOffset":27689932,
			"target":34963
		},
		{
			"buffer":0,
			"byteLength":67032,
			"byteOffset":27797992,
			"target":34962
		},
		{
			"buffer":0,
			"byteLength":67032,
			"byteOffset":27865024,
			"target":34962
		},
		{
			"buffer":0,
			"byteLength":38922,
			"byteOffset":27932056,
			"target":34963
		},
		{
			"buffer":0,
			"byteLength":158544,
			"byteOffset":27970980,
			"target":34962
		},
		{
			"buffer":0,
			"byteLength":158544,
			"byteOffset":28129524,
			"target":34962
		},
		{
			"buffer":0,
			"byteLength":641484,
			"byteOffset":28288068,
			"target":34962
		},
		{
			"buffer":0,
			"byteLength":641484,
			"byteOffset":28929552,
			"target":34962
		},
		{
			"buffer":0,
			"byteLength":108060,
			"byteOffset":29571036,
			"target":34963
		},
		{
			"buffer":0,
			"byteLength":636516,
			"byteOffset":29679096,
			"target":34962
		},
		{
			"buffer":0,
			"byteLength":636516,
			"byteOffset":30315612,
			"target":34962
		},
		{
			"buffer":0,
			"byteLength":182910,
			"byteOffset":30952128,
			"target":34963
		},
		{
			"buffer":0,
			"byteLength":218436,
			"byteOffset":31135040,
			"target":34962
		},
		{
			"buffer":0,
			"byteLength":218436,
			"byteOffset":31353476,
			"target":34962
		},
		{
			"buffer":0,
			"byteLength":132660,
			"byteOffset":31571912,
			"target":34963
		},
		{
			"buffer":0,
			"byteLength":696456,
			"byteOffset":31704572,
			"target":34962
		},
		{
			"buffer":0,
			"byteLength":696456,
			"byteOffset":32401028,
			"target":34962
		},
		{
			"buffer":0,
			"byteLength":117762,
			"byteOffset":33097484,
			"target":34963
		},
		{
			"buffer":0,
			"byteLength":66900,
			"byteOffset":33215248,
			"target":34962
		},
		{
			"buffer":0,
			"byteLength":66900,
			"byteOffset":33282148,
			"target":34962
		},
		{
			"buffer":0,
			"byteLength":38922,
			"byteOffset":33349048,
			"target":34963
		},
		{
			"buffer":0,
			"byteLength":158544,
			"byteOffset":33387972,
			"target":34962
		},
		{
			"buffer":0,
			"byteLength":158544,
			"byteOffset":33546516,
			"target":34962
		},
		{
			"buffer":0,
			"byteLength":641508,
			"byteOffset":33705060,
			"target":34962
		},
		{
			"buffer":0,
			"byteLength":641508,
			"byteOffset":34346568,
			"target":34962
		},
		{
			"buffer":0,
			"byteLength":108060,
			"byteOffset":34988076,
			"target":34963
		},
		{
			"buffer":0,
			"byteLength":636636,
			"byteOffset":35096136,
			"target":34962
		},
		{
			"buffer":0,
			"byteLength":636636,
			"byteOffset":35732772,
			"target":34962
		},
		{
			"buffer":0,
			"byteLength":182910,
			"byteOffset":36369408,
			"target":34963
		},
		{
			"buffer":0,
			"byteLength":218052,
			"byteOffset":36552320,
			"target":34962
		},
		{
			"buffer":0,
			"byteLength":218052,
			"byteOffset":36770372,
			"target":34962
		},
		{
			"buffer":0,
			"byteLength":110130,
			"byteOffset":36988424,
			"target":34963
		},
		{
			"buffer":0,
			"byteLength":288,
			"byteOffset":37098556,
			"target":34962
		},
		{
			"buffer":0,
			"byteLength":288,
			"byteOffset":37098844,
			"target":34962
		},
		{
			"buffer":0,
			"byteLength":192,
			"byteOffset":37099132,
			"target":34962
		},
		{
			"buffer":0,
			"byteLength":72,
			"byteOffset":37099324,
			"target":34963
		},
		{
			"buffer":0,
			"byteLength":480,
			"byteOffset":37099396
		},
		{
			"buffer":0,
			"byteLength":1440,
			"byteOffset":37099876
		},
		{
			"buffer":0,
			"byteLength":1440,
			"byteOffset":37101316
		},
		{
			"buffer":0,
			"byteLength":1440,
			"byteOffset":37102756
		},
		{
			"buffer":0,
			"byteLength":1920,
			"byteOffset":37104196
		},
		{
			"buffer":0,
			"byteLength":1440,
			"byteOffset":37106116
		},
		{
			"buffer":0,
			"byteLength":1920,
			"byteOffset":37107556
		},
		{
			"buffer":0,
			"byteLength":1440,
			"byteOffset":37109476
		},
		{
			"buffer":0,
			"byteLength":1920,
			"byteOffset":37110916
		},
		{
			"buffer":0,
			"byteLength":1440,
			"byteOffset":37112836
		},
		{
			"buffer":0,
			"byteLength":1920,
			"byteOffset":37114276
		},
		{
			"buffer":0,
			"byteLength":1440,
			"byteOffset":37116196
		},
		{
			"buffer":0,
			"byteLength":1440,
			"byteOffset":37117636
		},
		{
			"buffer":0,
			"byteLength":1440,
			"byteOffset":37119076
		},
		{
			"buffer":0,
			"byteLength":1920,
			"byteOffset":37120516
		},
		{
			"buffer":0,
			"byteLength":1440,
			"byteOffset":37122436
		},
		{
			"buffer":0,
			"byteLength":1440,
			"byteOffset":37123876
		},
		{
			"buffer":0,
			"byteLength":1920,
			"byteOffset":37125316
		},
		{
			"buffer":0,
			"byteLength":1440,
			"byteOffset":37127236
		},
		{
			"buffer":0,
			"byteLength":1920,
			"byteOffset":37128676
		},
		{
			"buffer":0,
			"byteLength":1440,
			"byteOffset":37130596
		},
		{
			"buffer":0,
			"byteLength":1440,
			"byteOffset":37132036
		},
		{
			"buffer":0,
			"byteLength":1920,
			"byteOffset":37133476
		},
		{
			"buffer":0,
			"byteLength":1440,
			"byteOffset":37135396
		}
	],
	"buffers":[
		{
			"byteLength":37136836,
			"uri":"Go2_Web_Animated_3.bin"
		}
	]
}
