{
	"asset":{
		"generator":"Khronos glTF Blender I/O v4.5.48",
		"version":"2.0"
	},
	"scene":0,
	"scenes":[
		{
			"name":"Scene",
			"nodes":[
				8
			]
		}
	],
	"nodes":[
		{
			"mesh":0,
			"name":"evaa_Material.001_0"
		},
		{
			"mesh":1,
			"name":"evaa_Material.002_0"
		},
		{
			"mesh":2,
			"name":"evaa_Material.003_0"
		},
		{
			"mesh":3,
			"name":"evaa_Material.004_0"
		},
		{
			"mesh":4,
			"name":"evaa_Material_0"
		},
		{
			"children":[
				0,
				1,
				2,
				3,
				4
			],
			"name":"evaa",
			"rotation":[
				-0.70710688829422,
				0,
				0,
				0.7071066498756409
			],
			"scale":[
				100,
				99.99999237060547,
				99.99999237060547
			]
		},
		{
			"children":[
				5
			],
			"name":"RootNode"
		},
		{
			"children":[
				6
			],
			"name":"c69080ad9a2d4329aae01c36915d8eab.fbx",
			"rotation":[
				0.70710688829422,
				0,
				0,
				0.7071066498756409
			],
			"scale":[
				0.009999999776482582,
				0.010000001639127731,
				0.010000001639127731
			]
		},
		{
			"children":[
				7
			],
			"name":"Sketchfab_model",
			"rotation":[
				-0.7071066498756409,
				0,
				0,
				0.70710688829422
			],
			"scale":[
				3.25,
				3.250000476837158,
				3.250000476837158
			]
		}
	],
	"materials":[
		{
			"doubleSided":true,
			"name":"Material.002",
			"pbrMetallicRoughness":{
				"baseColorFactor":[
					0,
					0,
					0,
					1
				],
				"metallicFactor":0
			}
		},
		{
			"doubleSided":true,
			"emissiveFactor":[
				0.03514415475722599,
				0.14501347042219237,
				0.5177409261088961
			],
			"name":"Material.003",
			"pbrMetallicRoughness":{
				"baseColorFactor":[
					0.018770596012473106,
					0.11300250142812729,
					0.3471510708332062,
					1
				],
				"metallicFactor":0.13257183134555817,
				"roughnessFactor":0.37638211250305176
			}
		},
		{
			"doubleSided":true,
			"name":"Material.004",
			"pbrMetallicRoughness":{
				"baseColorFactor":[
					0.800000011920929,
					0.008674560114741325,
					0.00786891020834446,
					1
				],
				"metallicFactor":0,
				"roughnessFactor":0.9604546427726746
			}
		},
		{
			"doubleSided":true,
			"name":"Material.005",
			"pbrMetallicRoughness":{
				"baseColorFactor":[
					0,
					0.5829259753227234,
					0.800000011920929,
					1
				],
				"metallicFactor":0,
				"roughnessFactor":0.8938608765602112
			}
		},
		{
			"doubleSided":true,
			"name":"Material.001",
			"pbrMetallicRoughness":{
				"baseColorFactor":[
					0.800000011920929,
					0.800000011920929,
					0.800000011920929,
					1
				],
				"metallicFactor":0,
				"roughnessFactor":0
			}
		}
	],
	"meshes":[
		{
			"name":"evaa_Material.001_0",
			"primitives":[
				{
					"attributes":{
						"POSITION":0,
						"NORMAL":1,
						"TEXCOORD_0":2
					},
					"indices":3,
					"material":0
				}
			]
		},
		{
			"name":"evaa_Material.002_0",
			"primitives":[
				{
					"attributes":{
						"POSITION":4,
						"NORMAL":5,
						"TEXCOORD_0":6
					},
					"indices":7,
					"material":1
				}
			]
		},
		{
			"name":"evaa_Material.003_0",
			"primitives":[
				{
					"attributes":{
						"POSITION":8,
						"NORMAL":9,
						"TEXCOORD_0":10
					},
					"indices":11,
					"material":2
				}
			]
		},
		{
			"name":"evaa_Material.004_0",
			"primitives":[
				{
					"attributes":{
						"POSITION":12,
						"NORMAL":13,
						"TEXCOORD_0":14
					},
					"indices":15,
					"material":3
				}
			]
		},
		{
			"name":"evaa_Material_0",
			"primitives":[
				{
					"attributes":{
						"POSITION":16,
						"NORMAL":17,
						"TEXCOORD_0":18
					},
					"indices":19,
					"material":4
				}
			]
		}
	],
	"accessors":[
		{
			"bufferView":0,
			"componentType":5126,
			"count":842,
			"max":[
				-0.05972057208418846,
				0.11862367391586304,
				0.5513976812362671
			],
			"min":[
				-0.14054395258426666,
				-0.11982671916484833,
				0.4082581698894501
			],
			"type":"VEC3"
		},
		{
			"bufferView":1,
			"componentType":5126,
			"count":842,
			"type":"VEC3"
		},
		{
			"bufferView":2,
			"componentType":5126,
			"count":842,
			"type":"VEC2"
		},
		{
			"bufferView":3,
			"componentType":5123,
			"count":4170,
			"type":"SCALAR"
		},
		{
			"bufferView":4,
			"componentType":5126,
			"count":209,
			"max":[
				-0.1154598742723465,
				0.08300182223320007,
				0.5044976472854614
			],
			"min":[
				-0.14003200829029083,
				-0.08309444785118103,
				0.4508099853992462
			],
			"type":"VEC3"
		},
		{
			"bufferView":5,
			"componentType":5126,
			"count":209,
			"type":"VEC3"
		},
		{
			"bufferView":6,
			"componentType":5126,
			"count":209,
			"type":"VEC2"
		},
		{
			"bufferView":7,
			"componentType":5123,
			"count":960,
			"type":"SCALAR"
		},
		{
			"bufferView":8,
			"componentType":5126,
			"count":40,
			"max":[
				-0.11700744926929474,
				0.06448279321193695,
				0.32335418462753296
			],
			"min":[
				-0.12571761012077332,
				0.03319264203310013,
				0.28871703147888184
			],
			"type":"VEC3"
		},
		{
			"bufferView":9,
			"componentType":5126,
			"count":40,
			"type":"VEC3"
		},
		{
			"bufferView":10,
			"componentType":5126,
			"count":40,
			"type":"VEC2"
		},
		{
			"bufferView":11,
			"componentType":5123,
			"count":72,
			"type":"SCALAR"
		},
		{
			"bufferView":12,
			"componentType":5126,
			"count":120,
			"max":[
				-0.06851167976856232,
				0.13936491310596466,
				0.338127464056015
			],
			"min":[
				-0.11196067929267883,
				0.07985608279705048,
				0.300538033246994
			],
			"type":"VEC3"
		},
		{
			"bufferView":13,
			"componentType":5126,
			"count":120,
			"type":"VEC3"
		},
		{
			"bufferView":14,
			"componentType":5126,
			"count":120,
			"type":"VEC2"
		},
		{
			"bufferView":15,
			"componentType":5123,
			"count":180,
			"type":"SCALAR"
		},
		{
			"bufferView":16,
			"componentType":5126,
			"count":33156,
			"max":[
				0.16618648171424866,
				0.1855984330177307,
				0.6158262491226196
			],
			"min":[
				-0.13247935473918915,
				-0.1855984330177307,
				0.010276979766786098
			],
			"type":"VEC3"
		},
		{
			"bufferView":17,
			"componentType":5126,
			"count":33156,
			"type":"VEC3"
		},
		{
			"bufferView":18,
			"componentType":5126,
			"count":33156,
			"type":"VEC2"
		},
		{
			"bufferView":19,
			"componentType":5123,
			"count":169560,
			"type":"SCALAR"
		}
	],
	"bufferViews":[
		{
			"buffer":0,
			"byteLength":10104,
			"byteOffset":0,
			"target":34962
		},
		{
			"buffer":0,
			"byteLength":10104,
			"byteOffset":10104,
			"target":34962
		},
		{
			"buffer":0,
			"byteLength":6736,
			"byteOffset":20208,
			"target":34962
		},
		{
			"buffer":0,
			"byteLength":8340,
			"byteOffset":26944,
			"target":34963
		},
		{
			"buffer":0,
			"byteLength":2508,
			"byteOffset":35284,
			"target":34962
		},
		{
			"buffer":0,
			"byteLength":2508,
			"byteOffset":37792,
			"target":34962
		},
		{
			"buffer":0,
			"byteLength":1672,
			"byteOffset":40300,
			"target":34962
		},
		{
			"buffer":0,
			"byteLength":1920,
			"byteOffset":41972,
			"target":34963
		},
		{
			"buffer":0,
			"byteLength":480,
			"byteOffset":43892,
			"target":34962
		},
		{
			"buffer":0,
			"byteLength":480,
			"byteOffset":44372,
			"target":34962
		},
		{
			"buffer":0,
			"byteLength":320,
			"byteOffset":44852,
			"target":34962
		},
		{
			"buffer":0,
			"byteLength":144,
			"byteOffset":45172,
			"target":34963
		},
		{
			"buffer":0,
			"byteLength":1440,
			"byteOffset":45316,
			"target":34962
		},
		{
			"buffer":0,
			"byteLength":1440,
			"byteOffset":46756,
			"target":34962
		},
		{
			"buffer":0,
			"byteLength":960,
			"byteOffset":48196,
			"target":34962
		},
		{
			"buffer":0,
			"byteLength":360,
			"byteOffset":49156,
			"target":34963
		},
		{
			"buffer":0,
			"byteLength":397872,
			"byteOffset":49516,
			"target":34962
		},
		{
			"buffer":0,
			"byteLength":397872,
			"byteOffset":447388,
			"target":34962
		},
		{
			"buffer":0,
			"byteLength":265248,
			"byteOffset":845260,
			"target":34962
		},
		{
			"buffer":0,
			"byteLength":339120,
			"byteOffset":1110508,
			"target":34963
		}
	],
	"buffers":[
		{
			"byteLength":1449628,
			"uri":"eva.bin"
		}
	]
}
