{
	"asset":{
		"generator":"Khronos glTF Blender I/O v4.5.48",
		"version":"2.0"
	},
	"scene":0,
	"scenes":[
		{
			"name":"Scene",
			"nodes":[
				0,
				1,
				2,
				3,
				4,
				5,
				6,
				7,
				8,
				9,
				10,
				11,
				12,
				13,
				14,
				15,
				16,
				17
			]
		}
	],
	"nodes":[
		{
			"mesh":0,
			"name":"Body",
			"rotation":[
				0.5000000596046448,
				-0.5,
				0.4999999403953552,
				0.5
			]
		},
		{
			"mesh":1,
			"name":"Logos",
			"rotation":[
				0.5000000596046448,
				-0.5,
				0.4999999403953552,
				0.5
			]
		},
		{
			"mesh":2,
			"name":"CalfFrontLeft",
			"rotation":[
				0.5000000596046448,
				-0.5,
				0.4999999403953552,
				0.5
			]
		},
		{
			"mesh":3,
			"name":"LegFrontLeft",
			"rotation":[
				0.5000000596046448,
				-0.5,
				0.4999999403953552,
				0.5
			]
		},
		{
			"mesh":4,
			"name":"LeftFrontMotor",
			"rotation":[
				0.5000000596046448,
				-0.5,
				0.4999999403953552,
				0.5
			]
		},
		{
			"mesh":5,
			"name":"CalfFrontRight",
			"rotation":[
				0.5000000596046448,
				-0.5,
				0.4999999403953552,
				0.5
			]
		},
		{
			"mesh":6,
			"name":"LegRightFront",
			"rotation":[
				0.5000000596046448,
				-0.5,
				0.4999999403953552,
				0.5
			]
		},
		{
			"mesh":7,
			"name":"RightFrontMotor",
			"rotation":[
				0.5000000596046448,
				-0.5,
				0.4999999403953552,
				0.5
			]
		},
		{
			"mesh":8,
			"name":"CalfBackLeft",
			"rotation":[
				0.5000000596046448,
				-0.5,
				0.4999999403953552,
				0.5
			]
		},
		{
			"mesh":9,
			"name":"ContactPoint",
			"rotation":[
				0.5000000596046448,
				-0.5,
				0.4999999403953552,
				0.5
			]
		},
		{
			"mesh":10,
			"name":"LeftMotor",
			"rotation":[
				-0.4992866814136505,
				0.5007586479187012,
				0.49924027919769287,
				0.5007122755050659
			]
		},
		{
			"mesh":11,
			"name":"LegBackLeft",
			"rotation":[
				0.5000000596046448,
				-0.5,
				0.4999999403953552,
				0.5
			]
		},
		{
			"mesh":12,
			"name":"HeadSensor",
			"rotation":[
				0.5000000596046448,
				-0.5,
				0.4999999403953552,
				0.5
			]
		},
		{
			"mesh":13,
			"name":"CalfBackRight",
			"rotation":[
				0.5000000596046448,
				-0.5,
				0.4999999403953552,
				0.5
			]
		},
		{
			"mesh":14,
			"name":"RightMotor",
			"rotation":[
				0.4999538064002991,
				0.49999988079071045,
				-0.5,
				0.5000463128089905
			]
		},
		{
			"mesh":15,
			"name":"LegBackRight",
			"rotation":[
				0.5000000596046448,
				-0.5,
				0.4999999403953552,
				0.5
			]
		},
		{
			"mesh":16,
			"name":"BateryPark",
			"rotation":[
				0.4868810176849365,
				0.5118748545646667,
				-0.489613801240921,
				0.5110864639282227
			],
			"scale":[
				0.48467522859573364,
				0.69999760389328,
				0.6999993920326233
			]
		},
		{
			"mesh":17,
			"name":"TrackingModule",
			"rotation":[
				0.0020142460707575083,
				0.9999772906303406,
				0.006190197542309761,
				0.0017372546717524529
			],
			"scale":[
				3.043818950653076,
				2.257067918777466,
				2.6778414249420166
			]
		}
	],
	"materials":[
		{
			"doubleSided":true,
			"name":"material_4C4C4C",
			"pbrMetallicRoughness":{
				"baseColorFactor":[
					0.6842046976089478,
					0.7078167796134949,
					0.7238528728485107,
					1
				],
				"metallicFactor":0
			}
		},
		{
			"doubleSided":true,
			"name":"material_100100100",
			"pbrMetallicRoughness":{
				"metallicFactor":0
			}
		},
		{
			"doubleSided":true,
			"name":"material_737373",
			"pbrMetallicRoughness":{
				"baseColorFactor":[
					0.5647076964378357,
					0.5840790867805481,
					0.5972022414207458,
					1
				],
				"metallicFactor":0.4617156982421875,
				"roughnessFactor":0.6689544320106506
			}
		},
		{
			"doubleSided":true,
			"name":"material_CCC",
			"pbrMetallicRoughness":{
				"baseColorFactor":[
					0.01773197017610073,
					0.01692909561097622,
					0.01692909561097622,
					1
				],
				"metallicFactor":0,
				"roughnessFactor":0.8944789171218872
			}
		},
		{
			"alphaMode":"MASK",
			"doubleSided":true,
			"name":"Invisible",
			"pbrMetallicRoughness":{
				"baseColorFactor":[
					0.7990972995758057,
					0.7991039752960205,
					0,
					0
				],
				"metallicFactor":0,
				"roughnessFactor":0.5
			}
		}
	],
	"meshes":[
		{
			"name":"Object_0",
			"primitives":[
				{
					"attributes":{
						"POSITION":0,
						"NORMAL":1,
						"TEXCOORD_0":2
					},
					"indices":3,
					"material":0
				}
			]
		},
		{
			"name":"Object_11",
			"primitives":[
				{
					"attributes":{
						"POSITION":4,
						"NORMAL":5
					},
					"indices":6,
					"material":1
				}
			]
		},
		{
			"name":"Object_12",
			"primitives":[
				{
					"attributes":{
						"POSITION":7,
						"NORMAL":8
					},
					"indices":9,
					"material":2
				}
			]
		},
		{
			"name":"Object_16",
			"primitives":[
				{
					"attributes":{
						"POSITION":10,
						"NORMAL":11
					},
					"indices":12,
					"material":2
				}
			]
		},
		{
			"name":"Object_17",
			"primitives":[
				{
					"attributes":{
						"POSITION":13,
						"NORMAL":14
					},
					"indices":15,
					"material":0
				},
				{
					"attributes":{
						"POSITION":16,
						"NORMAL":17
					},
					"indices":18,
					"material":2
				}
			]
		},
		{
			"name":"Object_18",
			"primitives":[
				{
					"attributes":{
						"POSITION":19,
						"NORMAL":20
					},
					"indices":21,
					"material":2
				}
			]
		},
		{
			"name":"Object_22",
			"primitives":[
				{
					"attributes":{
						"POSITION":22,
						"NORMAL":23
					},
					"indices":24,
					"material":2
				}
			]
		},
		{
			"name":"Object_23",
			"primitives":[
				{
					"attributes":{
						"POSITION":25,
						"NORMAL":26
					},
					"indices":27,
					"material":0
				},
				{
					"attributes":{
						"POSITION":28,
						"NORMAL":29
					},
					"indices":18,
					"material":2
				}
			]
		},
		{
			"name":"Object_24",
			"primitives":[
				{
					"attributes":{
						"POSITION":30,
						"NORMAL":31
					},
					"indices":9,
					"material":2
				}
			]
		},
		{
			"name":"Object_25",
			"primitives":[
				{
					"attributes":{
						"POSITION":32,
						"NORMAL":33
					},
					"indices":34,
					"material":3
				}
			]
		},
		{
			"name":"Object_26",
			"primitives":[
				{
					"attributes":{
						"POSITION":35,
						"NORMAL":36
					},
					"indices":18,
					"material":2
				},
				{
					"attributes":{
						"POSITION":37,
						"NORMAL":38
					},
					"indices":39,
					"material":0
				}
			]
		},
		{
			"name":"Object_28",
			"primitives":[
				{
					"attributes":{
						"POSITION":40,
						"NORMAL":41
					},
					"indices":12,
					"material":2
				}
			]
		},
		{
			"name":"Object_3",
			"primitives":[
				{
					"attributes":{
						"POSITION":42,
						"NORMAL":43
					},
					"indices":44,
					"material":3
				}
			]
		},
		{
			"name":"Object_30",
			"primitives":[
				{
					"attributes":{
						"POSITION":45,
						"NORMAL":46
					},
					"indices":21,
					"material":2
				}
			]
		},
		{
			"name":"Object_32",
			"primitives":[
				{
					"attributes":{
						"POSITION":47,
						"NORMAL":48
					},
					"indices":18,
					"material":2
				},
				{
					"attributes":{
						"POSITION":49,
						"NORMAL":50
					},
					"indices":51,
					"material":0
				}
			]
		},
		{
			"name":"Object_34",
			"primitives":[
				{
					"attributes":{
						"POSITION":52,
						"NORMAL":53
					},
					"indices":24,
					"material":2
				}
			]
		},
		{
			"name":"Cube.001",
			"primitives":[
				{
					"attributes":{
						"POSITION":54,
						"NORMAL":55,
						"TEXCOORD_0":56
					},
					"indices":57
				}
			]
		},
		{
			"name":"Cube.002",
			"primitives":[
				{
					"attributes":{
						"POSITION":58,
						"NORMAL":59,
						"TEXCOORD_0":60
					},
					"indices":57,
					"material":4
				}
			]
		}
	],
	"accessors":[
		{
			"bufferView":0,
			"componentType":5126,
			"count":176900,
			"max":[
				0.33195793628692627,
				0.09722297638654709,
				-0.35384100675582886
			],
			"min":[
				-0.1279979646205902,
				-0.09677696973085403,
				-0.5388339757919312
			],
			"type":"VEC3"
		},
		{
			"bufferView":1,
			"componentType":5126,
			"count":176900,
			"type":"VEC3"
		},
		{
			"bufferView":2,
			"componentType":5126,
			"count":176900,
			"type":"VEC2"
		},
		{
			"bufferView":3,
			"componentType":5125,
			"count":178269,
			"type":"SCALAR"
		},
		{
			"bufferView":4,
			"componentType":5126,
			"count":484152,
			"max":[
				0.3272639513015747,
				0.09672683477401733,
				-0.46649858355522156
			],
			"min":[
				-0.09323566406965256,
				-0.09706424176692963,
				-0.5045362710952759
			],
			"type":"VEC3"
		},
		{
			"bufferView":5,
			"componentType":5126,
			"count":484152,
			"type":"VEC3"
		},
		{
			"bufferView":6,
			"componentType":5125,
			"count":493356,
			"type":"SCALAR"
		},
		{
			"bufferView":7,
			"componentType":5126,
			"count":5570,
			"max":[
				0.225835919380188,
				-0.12335604429244995,
				-0.016810476779937744
			],
			"min":[
				0.17359602451324463,
				-0.16070197522640228,
				-0.2686433494091034
			],
			"type":"VEC3"
		},
		{
			"bufferView":8,
			"componentType":5126,
			"count":5570,
			"type":"VEC3"
		},
		{
			"bufferView":9,
			"componentType":5123,
			"count":19461,
			"type":"SCALAR"
		},
		{
			"bufferView":10,
			"componentType":5126,
			"count":18056,
			"max":[
				0.23988692462444305,
				-0.0936039388179779,
				-0.2232004553079605
			],
			"min":[
				0.14738702774047852,
				-0.15807096660137177,
				-0.4994264543056488
			],
			"type":"VEC3"
		},
		{
			"bufferView":11,
			"componentType":5126,
			"count":18056,
			"type":"VEC3"
		},
		{
			"bufferView":12,
			"componentType":5123,
			"count":55080,
			"type":"SCALAR"
		},
		{
			"bufferView":13,
			"componentType":5126,
			"count":52970,
			"max":[
				0.24186395108699799,
				-0.00841599702835083,
				-0.4011624753475189
			],
			"min":[
				0.1320839822292328,
				-0.1586209386587143,
				-0.5011314153671265
			],
			"type":"VEC3"
		},
		{
			"bufferView":14,
			"componentType":5126,
			"count":52970,
			"type":"VEC3"
		},
		{
			"bufferView":15,
			"componentType":5123,
			"count":91455,
			"type":"SCALAR"
		},
		{
			"bufferView":16,
			"componentType":5126,
			"count":53450,
			"max":[
				0.24183382093906403,
				-0.01680898666381836,
				-0.40415748953819275
			],
			"min":[
				0.12378397583961487,
				-0.07480888813734055,
				-0.49665746092796326
			],
			"type":"VEC3"
		},
		{
			"bufferView":17,
			"componentType":5126,
			"count":53450,
			"type":"VEC3"
		},
		{
			"bufferView":18,
			"componentType":5123,
			"count":54030,
			"type":"SCALAR"
		},
		{
			"bufferView":19,
			"componentType":5126,
			"count":5561,
			"max":[
				0.2258358895778656,
				0.16240203380584717,
				-0.016810491681098938
			],
			"min":[
				0.17359599471092224,
				0.12505610287189484,
				-0.2686433792114258
			],
			"type":"VEC3"
		},
		{
			"bufferView":20,
			"componentType":5126,
			"count":5561,
			"type":"VEC3"
		},
		{
			"bufferView":21,
			"componentType":5123,
			"count":19461,
			"type":"SCALAR"
		},
		{
			"bufferView":22,
			"componentType":5126,
			"count":18043,
			"max":[
				0.23988689482212067,
				0.15807099640369415,
				-0.2232004553079605
			],
			"min":[
				0.14738699793815613,
				0.09360404312610626,
				-0.4994264543056488
			],
			"type":"VEC3"
		},
		{
			"bufferView":23,
			"componentType":5126,
			"count":18043,
			"type":"VEC3"
		},
		{
			"bufferView":24,
			"componentType":5123,
			"count":55065,
			"type":"SCALAR"
		},
		{
			"bufferView":25,
			"componentType":5126,
			"count":53029,
			"max":[
				0.2418639212846756,
				0.15862102806568146,
				-0.40145453810691833
			],
			"min":[
				0.1320839524269104,
				0.008415862917900085,
				-0.5011314153671265
			],
			"type":"VEC3"
		},
		{
			"bufferView":26,
			"componentType":5126,
			"count":53029,
			"type":"VEC3"
		},
		{
			"bufferView":27,
			"componentType":5123,
			"count":91455,
			"type":"SCALAR"
		},
		{
			"bufferView":28,
			"componentType":5126,
			"count":53450,
			"max":[
				0.24183383584022522,
				0.07480894774198532,
				-0.40445005893707275
			],
			"min":[
				0.12378396838903427,
				0.01680903136730194,
				-0.49695250391960144
			],
			"type":"VEC3"
		},
		{
			"bufferView":29,
			"componentType":5126,
			"count":53450,
			"type":"VEC3"
		},
		{
			"bufferView":30,
			"componentType":5126,
			"count":5570,
			"max":[
				-0.16096407175064087,
				-0.12335611879825592,
				-0.016810372471809387
			],
			"min":[
				-0.21320395171642303,
				-0.16070204973220825,
				-0.26864326000213623
			],
			"type":"VEC3"
		},
		{
			"bufferView":31,
			"componentType":5126,
			"count":5570,
			"type":"VEC3"
		},
		{
			"bufferView":32,
			"componentType":5126,
			"count":52848,
			"max":[
				0.2126779705286026,
				0.1632760614156723,
				-0.0016394108533859253
			],
			"min":[
				-0.21942995488643646,
				-0.16183097660541534,
				-0.04043048992753029
			],
			"type":"VEC3"
		},
		{
			"bufferView":33,
			"componentType":5126,
			"count":52848,
			"type":"VEC3"
		},
		{
			"bufferView":34,
			"componentType":5123,
			"count":52848,
			"type":"SCALAR"
		},
		{
			"bufferView":35,
			"componentType":5126,
			"count":53450,
			"max":[
				0.24179203808307648,
				-0.015482380986213684,
				0.4971042275428772
			],
			"min":[
				0.12374219298362732,
				-0.07348228245973587,
				0.4046042561531067
			],
			"type":"VEC3"
		},
		{
			"bufferView":36,
			"componentType":5126,
			"count":53450,
			"type":"VEC3"
		},
		{
			"bufferView":37,
			"componentType":5126,
			"count":52960,
			"max":[
				0.2418203055858612,
				-0.007088914513587952,
				0.5015097260475159
			],
			"min":[
				0.13199946284294128,
				-0.15728993713855743,
				0.40159469842910767
			],
			"type":"VEC3"
		},
		{
			"bufferView":38,
			"componentType":5126,
			"count":52960,
			"type":"VEC3"
		},
		{
			"bufferView":39,
			"componentType":5123,
			"count":91455,
			"type":"SCALAR"
		},
		{
			"bufferView":40,
			"componentType":5126,
			"count":18056,
			"max":[
				-0.1469130665063858,
				-0.09360402822494507,
				-0.22320039570331573
			],
			"min":[
				-0.23941296339035034,
				-0.15807105600833893,
				-0.49942639470100403
			],
			"type":"VEC3"
		},
		{
			"bufferView":41,
			"componentType":5126,
			"count":18056,
			"type":"VEC3"
		},
		{
			"bufferView":42,
			"componentType":5126,
			"count":57914,
			"max":[
				0.33020395040512085,
				0.04217497631907463,
				-0.3537154197692871
			],
			"min":[
				0.24780094623565674,
				-0.04172898456454277,
				-0.506510317325592
			],
			"type":"VEC3"
		},
		{
			"bufferView":43,
			"componentType":5126,
			"count":57914,
			"type":"VEC3"
		},
		{
			"bufferView":44,
			"componentType":5123,
			"count":58881,
			"type":"SCALAR"
		},
		{
			"bufferView":45,
			"componentType":5126,
			"count":5561,
			"max":[
				-0.16096410155296326,
				0.1624019593000412,
				-0.01681041717529297
			],
			"min":[
				-0.21320398151874542,
				0.12505602836608887,
				-0.2686432898044586
			],
			"type":"VEC3"
		},
		{
			"bufferView":46,
			"componentType":5126,
			"count":5561,
			"type":"VEC3"
		},
		{
			"bufferView":47,
			"componentType":5126,
			"count":53450,
			"max":[
				0.24179214239120483,
				-0.016767427325248718,
				-0.4041796624660492
			],
			"min":[
				0.12374229729175568,
				-0.0747673287987709,
				-0.4966796338558197
			],
			"type":"VEC3"
		},
		{
			"bufferView":48,
			"componentType":5126,
			"count":53450,
			"type":"VEC3"
		},
		{
			"bufferView":49,
			"componentType":5126,
			"count":52969,
			"max":[
				0.24181991815567017,
				-0.008374202996492386,
				-0.40117377042770386
			],
			"min":[
				0.13199910521507263,
				-0.1585792601108551,
				-0.5011605620384216
			],
			"type":"VEC3"
		},
		{
			"bufferView":50,
			"componentType":5126,
			"count":52969,
			"type":"VEC3"
		},
		{
			"bufferView":51,
			"componentType":5123,
			"count":91455,
			"type":"SCALAR"
		},
		{
			"bufferView":52,
			"componentType":5126,
			"count":18043,
			"max":[
				-0.1469130963087082,
				0.158070906996727,
				-0.22320039570331573
			],
			"min":[
				-0.23941299319267273,
				0.0936039537191391,
				-0.49942639470100403
			],
			"type":"VEC3"
		},
		{
			"bufferView":53,
			"componentType":5126,
			"count":18043,
			"type":"VEC3"
		},
		{
			"bufferView":54,
			"componentType":5126,
			"count":24,
			"max":[
				0.11953126639127731,
				0.17099438607692719,
				-0.6135949492454529
			],
			"min":[
				-0.09897349029779434,
				0.15888972580432892,
				-0.6372634768486023
			],
			"type":"VEC3"
		},
		{
			"bufferView":55,
			"componentType":5126,
			"count":24,
			"type":"VEC3"
		},
		{
			"bufferView":56,
			"componentType":5126,
			"count":24,
			"type":"VEC2"
		},
		{
			"bufferView":57,
			"componentType":5123,
			"count":36,
			"type":"SCALAR"
		},
		{
			"bufferView":58,
			"componentType":5126,
			"count":24,
			"max":[
				0.0069984677247703075,
				0.24065323173999786,
				-0.07093788683414459
			],
			"min":[
				-0.005849584471434355,
				0.23691748082637787,
				-0.08915159106254578
			],
			"type":"VEC3"
		},
		{
			"bufferView":59,
			"componentType":5126,
			"count":24,
			"type":"VEC3"
		},
		{
			"bufferView":60,
			"componentType":5126,
			"count":24,
			"type":"VEC2"
		}
	],
	"bufferViews":[
		{
			"buffer":0,
			"byteLength":2122800,
			"byteOffset":0,
			"target":34962
		},
		{
			"buffer":0,
			"byteLength":2122800,
			"byteOffset":2122800,
			"target":34962
		},
		{
			"buffer":0,
			"byteLength":1415200,
			"byteOffset":4245600,
			"target":34962
		},
		{
			"buffer":0,
			"byteLength":713076,
			"byteOffset":5660800,
			"target":34963
		},
		{
			"buffer":0,
			"byteLength":5809824,
			"byteOffset":6373876,
			"target":34962
		},
		{
			"buffer":0,
			"byteLength":5809824,
			"byteOffset":12183700,
			"target":34962
		},
		{
			"buffer":0,
			"byteLength":1973424,
			"byteOffset":17993524,
			"target":34963
		},
		{
			"buffer":0,
			"byteLength":66840,
			"byteOffset":19966948,
			"target":34962
		},
		{
			"buffer":0,
			"byteLength":66840,
			"byteOffset":20033788,
			"target":34962
		},
		{
			"buffer":0,
			"byteLength":38922,
			"byteOffset":20100628,
			"target":34963
		},
		{
			"buffer":0,
			"byteLength":216672,
			"byteOffset":20139552,
			"target":34962
		},
		{
			"buffer":0,
			"byteLength":216672,
			"byteOffset":20356224,
			"target":34962
		},
		{
			"buffer":0,
			"byteLength":110160,
			"byteOffset":20572896,
			"target":34963
		},
		{
			"buffer":0,
			"byteLength":635640,
			"byteOffset":20683056,
			"target":34962
		},
		{
			"buffer":0,
			"byteLength":635640,
			"byteOffset":21318696,
			"target":34962
		},
		{
			"buffer":0,
			"byteLength":182910,
			"byteOffset":21954336,
			"target":34963
		},
		{
			"buffer":0,
			"byteLength":641400,
			"byteOffset":22137248,
			"target":34962
		},
		{
			"buffer":0,
			"byteLength":641400,
			"byteOffset":22778648,
			"target":34962
		},
		{
			"buffer":0,
			"byteLength":108060,
			"byteOffset":23420048,
			"target":34963
		},
		{
			"buffer":0,
			"byteLength":66732,
			"byteOffset":23528108,
			"target":34962
		},
		{
			"buffer":0,
			"byteLength":66732,
			"byteOffset":23594840,
			"target":34962
		},
		{
			"buffer":0,
			"byteLength":38922,
			"byteOffset":23661572,
			"target":34963
		},
		{
			"buffer":0,
			"byteLength":216516,
			"byteOffset":23700496,
			"target":34962
		},
		{
			"buffer":0,
			"byteLength":216516,
			"byteOffset":23917012,
			"target":34962
		},
		{
			"buffer":0,
			"byteLength":110130,
			"byteOffset":24133528,
			"target":34963
		},
		{
			"buffer":0,
			"byteLength":636348,
			"byteOffset":24243660,
			"target":34962
		},
		{
			"buffer":0,
			"byteLength":636348,
			"byteOffset":24880008,
			"target":34962
		},
		{
			"buffer":0,
			"byteLength":182910,
			"byteOffset":25516356,
			"target":34963
		},
		{
			"buffer":0,
			"byteLength":641400,
			"byteOffset":25699268,
			"target":34962
		},
		{
			"buffer":0,
			"byteLength":641400,
			"byteOffset":26340668,
			"target":34962
		},
		{
			"buffer":0,
			"byteLength":66840,
			"byteOffset":26982068,
			"target":34962
		},
		{
			"buffer":0,
			"byteLength":66840,
			"byteOffset":27048908,
			"target":34962
		},
		{
			"buffer":0,
			"byteLength":634176,
			"byteOffset":27115748,
			"target":34962
		},
		{
			"buffer":0,
			"byteLength":634176,
			"byteOffset":27749924,
			"target":34962
		},
		{
			"buffer":0,
			"byteLength":105696,
			"byteOffset":28384100,
			"target":34963
		},
		{
			"buffer":0,
			"byteLength":641400,
			"byteOffset":28489796,
			"target":34962
		},
		{
			"buffer":0,
			"byteLength":641400,
			"byteOffset":29131196,
			"target":34962
		},
		{
			"buffer":0,
			"byteLength":635520,
			"byteOffset":29772596,
			"target":34962
		},
		{
			"buffer":0,
			"byteLength":635520,
			"byteOffset":30408116,
			"target":34962
		},
		{
			"buffer":0,
			"byteLength":182910,
			"byteOffset":31043636,
			"target":34963
		},
		{
			"buffer":0,
			"byteLength":216672,
			"byteOffset":31226548,
			"target":34962
		},
		{
			"buffer":0,
			"byteLength":216672,
			"byteOffset":31443220,
			"target":34962
		},
		{
			"buffer":0,
			"byteLength":694968,
			"byteOffset":31659892,
			"target":34962
		},
		{
			"buffer":0,
			"byteLength":694968,
			"byteOffset":32354860,
			"target":34962
		},
		{
			"buffer":0,
			"byteLength":117762,
			"byteOffset":33049828,
			"target":34963
		},
		{
			"buffer":0,
			"byteLength":66732,
			"byteOffset":33167592,
			"target":34962
		},
		{
			"buffer":0,
			"byteLength":66732,
			"byteOffset":33234324,
			"target":34962
		},
		{
			"buffer":0,
			"byteLength":641400,
			"byteOffset":33301056,
			"target":34962
		},
		{
			"buffer":0,
			"byteLength":641400,
			"byteOffset":33942456,
			"target":34962
		},
		{
			"buffer":0,
			"byteLength":635628,
			"byteOffset":34583856,
			"target":34962
		},
		{
			"buffer":0,
			"byteLength":635628,
			"byteOffset":35219484,
			"target":34962
		},
		{
			"buffer":0,
			"byteLength":182910,
			"byteOffset":35855112,
			"target":34963
		},
		{
			"buffer":0,
			"byteLength":216516,
			"byteOffset":36038024,
			"target":34962
		},
		{
			"buffer":0,
			"byteLength":216516,
			"byteOffset":36254540,
			"target":34962
		},
		{
			"buffer":0,
			"byteLength":288,
			"byteOffset":36471056,
			"target":34962
		},
		{
			"buffer":0,
			"byteLength":288,
			"byteOffset":36471344,
			"target":34962
		},
		{
			"buffer":0,
			"byteLength":192,
			"byteOffset":36471632,
			"target":34962
		},
		{
			"buffer":0,
			"byteLength":72,
			"byteOffset":36471824,
			"target":34963
		},
		{
			"buffer":0,
			"byteLength":288,
			"byteOffset":36471896,
			"target":34962
		},
		{
			"buffer":0,
			"byteLength":288,
			"byteOffset":36472184,
			"target":34962
		},
		{
			"buffer":0,
			"byteLength":192,
			"byteOffset":36472472,
			"target":34962
		}
	],
	"buffers":[
		{
			"byteLength":36472664,
			"uri":"Go2.bin"
		}
	]
}
